<?xml version="1.0" encoding="UTF-8"?>
<svg id="Calque_1" xmlns="http://www.w3.org/2000/svg" version="1.1" viewBox="0.0 0.0 402.02399999999994 150.0">
  <!-- Generator: Adobe Illustrator 30.2.1, SVG Export Plug-In . SVG Version: 2.1.1 Build 1)  -->
  <defs>
    <style>
      .st0 {
        fill: #c94a2e;
      }
    </style>
  </defs>
  <path class="st0" d="M59.35,74.89c0-3.02-.31-5.81-.92-8.29-.6-2.45-1.66-4.72-3.15-6.74-1.5-2.03-3.54-3.95-6.09-5.71-2.56-1.77-5.84-3.47-9.75-5.06-3.38-1.35-5.69-2.31-7.07-2.93-1.61-.72-2.43-1.61-2.43-2.66,0-.75.33-1.73,1.91-2.15,1.04-.27,2.44-.4,4.16-.4,2.66,0,5.87.28,9.56.83,3.35.5,6.5,1.27,9.38,2.3l-2.93-24.46c-2.45-.55-5.12-1.07-7.95-1.56-2.97-.51-6.46-.76-10.37-.76-5.72,0-10.71.6-14.82,1.79-4.1,1.19-7.52,2.81-10.17,4.81-2.63,1.99-4.57,4.33-5.77,6.94-1.21,2.63-1.82,5.44-1.82,8.36s.29,5.37.86,7.63c.56,2.23,1.59,4.33,3.04,6.24,1.46,1.93,3.42,3.78,5.83,5.5,2.43,1.74,5.53,3.54,9.23,5.35,2.13,1.03,3.88,1.92,5.2,2.66,1.34.74,2.41,1.4,3.19,1.96.84.6,1.4,1.15,1.7,1.66.31.53.46,1.11.46,1.72,0,.91-.43,1.71-1.26,2.37-.82.65-2.46.95-5.14.95s-5.39-.15-7.89-.44c-2.49-.29-4.86-.67-7.04-1.11-2.18-.44-4.16-.93-5.89-1.45-1.3-.39-2.45-.76-3.42-1.11l2.72,25.24c2.86.75,6.17,1.36,9.85,1.81,3.82.47,8.78.71,14.74.71,5.35,0,10.07-.62,14.04-1.85,3.95-1.22,7.32-2.93,10-5.08,2.67-2.13,4.69-4.7,6.01-7.61,1.32-2.93,1.99-6.11,1.99-9.46M140.04,22.45c.73-1.19,1.48-2.36,2.23-3.49h-33.49c.05,2.06,0,3.98-.13,5.7-.15,1.89-.41,3.84-.78,5.79-.37,1.96-.88,4.07-1.5,6.27-.63,2.2-1.38,4.81-2.26,7.82l-.41,1.4-.64-1.31c-1.4-2.88-2.47-5.54-3.17-7.9-.7-2.37-1.23-4.6-1.56-6.63-.33-2.03-.56-4.02-.67-5.89-.1-1.7-.25-3.46-.44-5.25h-38.5l4.87,8.57c2.03,3.59,4.11,7.35,6.17,11.19,2.07,3.85,4.14,7.8,6.17,11.74,2.02,3.94,3.82,7.67,5.35,11.09l3.68,8.38v.77c0,4.08-.08,8.51-.22,13.18-.14,4.45-.69,8.94-1.62,13.35h35.5c-.88-4.41-1.39-8.9-1.53-13.35-.15-4.62-.22-9.06-.22-13.18l.06-2.45,9.36-19.49c2.41-4.98,4.47-9.15,6.12-12.4,1.66-3.28,3.13-6.07,4.36-8.28,1.25-2.25,2.35-4.14,3.26-5.63M211.95,26.08c.02-2.77.04-5.58.38-8.15-3.73.46-6.94.75-9.55.85-2.75.11-5.37.17-7.79.17h-29.3c-2.53,0-5.14-.06-7.84-.17-2.6-.1-5.86-.4-9.71-.87l-2.08,23.35c1.68-.3,3.18-.54,4.48-.7,1.48-.19,2.9-.33,4.27-.44,1.34-.11,2.76-.18,4.21-.22,1.44-.04,3.04-.06,4.81-.06h.56v23.14c0,3.97-.02,7.59-.06,10.86-.04,3.28-.11,6.33-.22,9.05-.11,2.72-.29,5.34-.55,7.8-.24,2.21-.58,4.4-1.02,6.53h35.52c-.38-2.14-.7-4.33-.93-6.53-.26-2.41-.44-5.04-.55-7.8-.11-2.82-.18-5.87-.22-9.05-.04-3.27-.05-6.88-.05-10.85l-.07-14.19c-.77-.54-1.54-1.13-2.27-1.83-.33-.3-.62-.65-.88-1.05-.44-.67-.81-1.53-1.12-2.66-.14-.51-.19-.87-.24-1.27-.03-.22-.05-.47-.05-.76-.02-.6.08-1.18.27-1.73.18-.52.42-.92.6-1.2.18-.29.37-.57.66-.87.31-.35.72-.69,1.11-.97.28-.21.57-.39.89-.54.59-.31,1.21-.51,1.87-.57.62-.06,1.14-.1,1.68-.1,1,0,1.82.15,2.95.36,1.29.24,2.98.7,4.76,1.19l.59.16,1.19.33.12.03c.73.21,1.84.35,3,.48v-.02c.01-.25.02-.5.02-.76.01-.69.03-1.47.14-2.33.06-.54.21-1.99.25-2.49.05-.74.08-1.62.13-2.57.04-1.09.06-2.3.06-3.55M328.43,98.73c-.22.17-.61.4-.78.5l-.21.13c-2.14,1.32-5.26,2.98-8.13,4.33l-.29.14.25.19c.79.59,1.65,1.14,2.57,1.72,1.46.93,2.97,1.88,4.17,3.03.4.39.77.79,1.09,1.23-3.13-.1-6.07-.74-9.17-1.4l-.42-.09-.02.22c-.2,2.43-.6,4.86-1.01,7.23l-.22-.71c-.74-2.38-1.52-4.85-2.29-7.27l-.04-.13h-.13c-.14-.01-.29-.02-.43-.02-2.34,0-4.65.95-6.89,1.86-1.62.66-3.29,1.34-4.94,1.65,1.24-1.22,2.74-2.23,4.19-3.21,1.37-.92,2.79-1.88,4.01-3.02l.13-.12-.11-.14c-1.71-2.2-3.45-4.4-4.99-6.33,2,.68,4.5,1.53,7.04,2.43l.19.07.05-.2c.94-3.58,1.86-7.09,2.74-10.56.24,1.44.46,2.88.69,4.33.3,1.93.61,3.92.94,5.87l.03.17.17-.02c2.17-.21,4.74-.67,7.23-1.12,1.6-.29,3.11-.56,4.37-.74.08-.01.16-.02.21-.02ZM296.82,97.11l-.07.06c-.48.41-1.37,1.17-1.86,1.29h0c-.1.03-.19.04-.26.04-.02,0-.03,0-.04,0-.1,0-.19-.03-.28-.06-.11-.04-.25-.08-.43-.09-.43-.02-.82-.12-1.24-.23-.37-.1-.76-.2-1.17-.23-.47-.04-.94-.05-1.4-.05h-.6s-.04,0-.05,0c-.57,0-1.15,0-1.73-.08-.15-.02-.28-.05-.41-.08-.19-.04-.4-.09-.66-.11-.41-.03-.85-.04-1.3-.04-.4,0-.8.01-1.17.02-.05,0-.11,0-.15,0,.86-1.35,1.73-2.69,2.6-4.04,1.07-1.68,2.15-3.35,3.22-5.03h.01c.77.03,1.52.03,2.26.03.37,0,.74-.02,1.1-.04.47-.02.93-.05,1.38-.08.36-.03.71-.07,1.06-.11.44-.05.88-.11,1.31-.18.34-.06.68-.12,1.01-.18.42-.09.85-.19,1.26-.29.32-.08.64-.17.96-.26.42-.13.83-.27,1.24-.41.31-.11.61-.21.91-.33.42-.17.83-.35,1.25-.55.28-.13.56-.25.84-.38.45-.23.9-.48,1.35-.74.23-.13.47-.25.7-.39.66-.4,1.32-.83,1.97-1.3.02-.01.04-.02.05-.03-.19.71-.85,1.83-1.2,2.36-2.93,4.33-6.25,8-10.43,11.55M308.97,78.26c-1.49,1.56-3.19,3.02-4.77,4.11l-.06.06c-.6.99-1.57,1.46-2.6,1.97l-.2.09c-.09.05-.13.12-.16.17-.6.3-1.22.53-1.96.74,0,0-.01,0-.09.02-.02,0-.04.01-.06.02-.02,0-.04.02-.07.02,0,0-.02,0-.03,0h0s-.01,0-.01,0c-.03,0-.07,0-.11.01l-.18.03c-.12.02-.28.04-.46.07-.06,0-.1.01-.16.02-.2.02-.4.04-.59.04-.01,0-.02,0-.03,0h0c-.15,0-.28-.01-.39-.04h0c-.05-.08-.12-.09-.17-.09-.01,0-.02,0-.03,0,0,0-.01,0-.02,0-.49.05-1.02.09-1.51.09-.07,0-.14,0-.22,0-.06,0-.09.01-.12.03-.44-.01-.88-.01-1.31-.01h0c-.16,0-.32,0-.49,0-.49,0-.98,0-1.47-.04h-.02s-.02-.03-.02-.04c-.02-.02-.08-.06-.15-.08-.03,0-.06-.02-.11,0h0c-.26-1.08.67-3.31,1.36-4.94.38-.9.7-1.68.78-2.13.42-2.38.43-4.45.45-6.45.01-1.7.03-3.32.27-5.12.07,0,.13.02.2.03.16.02.32.04.48.05.12,0,.23,0,.35-.01h0c.42-.07.86-.14,1.22-.16.05,0,.08,0,.12,0,.09,0,.16,0,.22,0,0,0,.02,0,.02,0,.06,0,.13,0,.2,0,.1,0,.22,0,.37-.03.21-.04.47-.12.74-.2.26-.08.52-.16.73-.2.08-.02.14-.07.19-.13.67-.36,1.38-.65,2.08-.92.47-.19.96-.38,1.42-.59.25-.11.48-.25.7-.38.18-.11.37-.22.56-.31.43-.22.83-.54,1.2-.82l.05-.03c.09-.07.11-.17.13-.24,0-.03.02-.06.03-.07.38-.33.75-.67,1.12-1.01.41-.37.83-.76,1.25-1.12l.07-.06h0s.05,0,.05,0l.02-.12h0c.15-.23.31-.41.49-.6.1-.11.2-.22.31-.35.15-.18.37-.47.57-.75.2-.27.4-.54.52-.67l.05-.05s.02-.02.03-.04l.11-.15-.05-.04h0c.23-.45.5-.85.79-1.28.08-.12.17-.25.25-.37,0,0,.03-.02.05-.04.03-.03.07-.06.11-.11.33-.45.65-.76,1.11-1.04.06,0,.14-.01.24-.08.03-.02.08-.03.12-.05.11-.04.26-.1.39-.24.14-.15.48-.32.67-.32,0,0,.01,0,.02,0,.14.01.26-.03.33-.08,0,0,0,0,0,0,1.03,6.46,1.08,11.22.2,15.87-.13.67-.32,1.23-.55,1.87l-.05.15s-.02.05-.03.07c-.03.1-.23.56-.29.7-.03.08-.05.12-.06.15-.01.03-.03.06-.06.13-.06.12-.26.44-.34.57-.06.08-.08.12-.11.2-1.07,1.58-2.19,2.8-3.66,4.34M312.55,51.28v.03c-.1.09-.21.2-.27.25-.05.04-.06.06-.08.07-.05.03-.13.08-.2.11l-.13.07c-.12.07-.19.17-.25.26-.05.01-.1.04-.15.1-.01.02-.03.05-.04.08-.01.02-.03.06-.04.08-.35.27-.7.53-1.06.79-.86.63-1.75,1.27-2.47,2.12l-.13.15c-.43.51-.88,1.03-1.2,1.62l-.08.14c-.14.28-.27.52-.48.74l-.03.03-.06-.03-.04.16s0,0,0,0c-.28.37-.62.7-.95,1.01-.01.01-.05.02-.08.03-.05.02-.1.03-.15.07-.07.05-.13.12-.16.18-.23.34-.76.8-.9.81h-.04s0,0,0,0c-.02,0-.04,0-.07,0l-.19.03v.1s0,0-.02,0c-.05,0-.11.02-.16.06-.06.04-.1.08-.13.12-.02.02-.03.04-.05.05-.26.19-.56.35-.85.51l-.24.13c-.07.04-.12.1-.15.15-.01.02-.03.04-.05.04-.07.02-.1.05-.15.1-.03.03-.06.07-.09.11-.03.04-.06.08-.09.1-.04.03-.12.06-.2.1-.1.04-.2.09-.25.12-.06.04-.1.08-.16.14-.24.17-.6.27-.88.35l-.12.03c-.19.05-.39.13-.58.21-.14.06-.27.11-.37.13h0s-.06.02-.08.02c-.02,0-.03,0-.04-.01-.04-.01-.08-.03-.17-.03-.11,0-.2.04-.31.08h-.07c-.47.15-.89.25-1.28.34l-.45.09c-.06.01-.09.03-.07.03l-.32.07c-.36.08-.72.16-1.1.23h-.02s0,0,0,0h0c-.06,0-.09,0-.14,0h0s-.05.01-.07.01c0,0,0,0,0,0-.02,0-.03,0-.04-.02-.07-.1-.16-.11-.2-.11-.08,0-.14.03-.18.08-.3-.9-.29-2.59-.28-4.08,0-.93.01-1.81-.06-2.38-.53-4.24-1.72-9.05-3.26-13.2-.38-1.02-.69-1.47-.99-1.91-.23-.33-.45-.65-.69-1.21,1.2-.06,2.41-.06,3.59-.07,4.39-.01,8.54-.03,12.25-2.8.08-.06.13-.14.16-.2.01-.02.03-.05.04-.06l.05-.06s.03-.03.05-.04c.02-.01.04-.02.06-.03.06-.02.13-.06.21-.11.26-.23.52-.49.76-.79h0c.49.97,1.01,1.93,1.51,2.87,2.06,3.87,4.02,7.53,4.91,11.81M302.36,35.2c-.89,1.8-2.37,2.1-4.37,2.34-1.49.17-3.08.22-4.62.26-1.78.05-3.62.1-5.37.35h0c-.53-.46-.83-1.52-1.07-2.37-.14-.48-.26-.93-.42-1.24-.87-1.75-1.87-3.32-2.84-4.83-.64-1.01-1.3-2.04-1.91-3.12,0,0,0,0,0,0,.5.07,1,.14,1.51.19.16.02.31.02.47.03.51.03,1.02.05,1.51-.01h0c.93-.11,1.74-.35,2.6-.6.31-.09.61-.18.93-.27.6-.16,1.01-.32,1.68-.65.59-.29,1.37-.89,2-1.37l.19-.14c1.36.41,3.24,1.86,4.25,2.7,1.35,1.11,2.78,2.42,3.84,3.49.35.36.66.69.91.98,1.5,1.74,1.62,2.46.71,4.28M289.48,22.05c.05.19,0,.22-.19.33-.04.02-.08.04-.13.07-.38.23-.77.4-1.16.55-.1.04-.2.07-.3.11-.35.12-.69.22-1.04.29-.04,0-.09.02-.13.03-.39.08-.79.13-1.19.16-.11,0-.21.01-.31.02-.34.02-.68.03-1.01.04-.05,0-.09,0-.14,0h-.07c-.66,0-1.32-.03-1.99-.06-.66-.03-1.35-.06-2.03-.06-.22-.13-.42-.28-.6-.46-.56-.53-1.01-1.25-1.44-1.95-.36-.58-.69-1.12-1.09-1.56-.53-.59-1.12-1.03-1.69-1.45-.44-.33-.87-.65-1.26-1.02,4.19.71,8.17,2.18,12.04,3.6,1.23.45,2.5.92,3.77,1.36M273.39,21.63c.74.79,1.35,1.62,1.72,2.53-.56.23-1.11.47-1.64.71-1.52.67-2.95,1.31-4.57,1.57h0c.07-1.26.02-2.54-.04-3.78-.03-.78-.07-1.6-.07-2.38,0-.24.04-.53.08-.75.01-.11.03-.21.04-.29.02-.17,0-.24-.04-.3,0,0,0-.01,0-.03v-.06q0-.08.03-.27c.03-.16.17-.51.31-.79.53.52,1.13,1.04,1.75,1.59.84.73,1.69,1.48,2.43,2.26M268.58,45.41c.11-5.1.22-10.21.33-15.32.14-.07.26-.13.39-.2.31-.16.6-.32.99-.46.16-.06.33-.12.51-.19.48-.18,1.02-.38,1.47-.51.25-.07.49-.15.74-.22.36-.11.7-.22,1.07-.31l.39-.1c.78-.2,1.59-.41,2.37-.74.03-.01.09-.02.15-.02.04,0,.09,0,.14-.01,1.86,1.9,3.02,4.08,4.24,6.38.22.4.43.81.66,1.22.03.07.1.12.19.19.08.06.17.13.26.22.09.09.17.2.24.34,1.07,2.37,1.02,2.81,1,2.87h0c-.02.06-.04.1-.07.11,0,0-.03,0-.05.01-.01,0-.02.01-.04.01-.02,0-.04,0-.07,0-.03,0-.07,0-.1,0-.1,0-.2.01-.3.08h0c-.44.32-.93.48-1.44.65-.21.07-.43.14-.64.22v-.03s-.19.03-.19.03c-.05,0-.27.08-.33.13-.05.03-.08.09-.1.13-.44.33-.94.47-1.47.63-.13.03-.25.07-.37.11-.12.04-.25.11-.35.16,0,0-.01,0-.02.01l-.04-.03-.13.05c-.11.05-.33.15-.49.24-.43.24-.86.49-1.29.75-.45.27-.93.55-1.41.81-.36.19-.72.39-1.08.59-1.43.79-2.91,1.61-4.51,2.09-.04.01-.08.03-.11.05h-.02s-.1,0-.1,0c-.03,0-.07,0-.14.03-.03,0-.08.03-.13.05-.01,0-.02,0-.03.01l-.04-.03h-.07ZM268.53,47.56c.21.03.41.02.61,0,.06,0,.13-.01.2-.03.22-.04.43-.11.65-.22,0,0,0,0,0,0h0c.07.02.15,0,.23-.02.02,0,.04,0,.06-.01.06-.02.12-.05.15-.06,0,0,0,0,0,0,.02-.01.08-.03.13-.06.16-.07.26-.11.32-.15.05-.04.08-.08.1-.11.53-.22,1.01-.51,1.47-.8.21-.13.41-.25.62-.37.23-.13.45-.26.68-.38.46-.25.9-.5,1.35-.77,1.18-.71,2.56-1.36,4.23-1.97.33-.12.71-.21,1.07-.3.42-.1.82-.2,1.15-.34.57-.24.98-.4,1.47-.57.46-.16.83-.26,1.23-.38l.15-.04s0,0,0,0c.16-.05.28-.07.4-.08.01,0,.03-.01.05-.01.08,0,.15.01.24.04l.29.49c1.26,2.07,2.25,3.71,2.97,6.3.95,3.47,1.86,7.39,2.63,11.34.21,1.1.61,3.93.44,4.47-.04.02-.09.06-.13.14-.12.21-.33.36-.42.37h-.04l-.1-.02s-.04,0-.07,0h-.22s-.07,0-.09,0l-.13-.09-.07.03c-.08.02-.15.04-.22.06h0c-.12.03-.24.06-.35.06-.03,0-.05,0-.08,0-.19-.03-.59-.12-.82-.18l-.16-.04s-.02,0-.03,0v-.02s-.17-.02-.17-.02c-.05,0-.1-.02-.15-.04-.1-.03-.2-.06-.29-.06-.07,0-.13.03-.17.07-.02,0-.05-.02-.08-.03-.1-.04-.26-.08-.42-.06-.05,0-.11.02-.16.03h0c-.09.02-.17.04-.26.04-.06,0-.12,0-.18-.03h0c-.35-.11-.86-.27-1.14-.32-.2-.03-.35-.03-.51-.03h-.11s-.07,0-.12,0h0c-.42-.03-.84-.08-1.24-.14-.23-.03-.46-.06-.69-.08-.75-.08-1.51-.14-2.25-.19-.58-.04-1.16-.08-1.75-.14l-.1-.06c-.08-.03-.2-.01-.25,0-.03,0-.06.01-.09.02-.04,0-.09.02-.12.02h0c-.68-.01-1.42-.03-2.15-.05-.96-.03-1.92-.06-2.78-.06-.34,0-.66-.01-.97-.02-.45-.01-.88-.01-1.32,0-.13,0-.27,0-.41.02-.48.03-.97.08-1.48.2h0c-.09.02-.17.03-.24.03-.06,0-.1-.02-.14-.03-.04,0-.08-.01-.12-.03-.11-.05-.22-.12-.35-.22h0c-.11-.08-.21-.08-.3-.05h0s.01-.1.02-.14c-.06-.05-.12-.1-.15-.18-.04-.08-.06-.18-.06-.27,0-.09,0-.18.01-.27,0-.1.02-.2.02-.31,0-.29,0-.57,0-.86,0-.29,0-.57-.01-.86,0-.29-.02-.57-.03-.86-.01-.29-.02-.57-.03-.86-.01-.28-.02-.57-.03-.85,0-.28,0-.57,0-.85s0-.57.01-.85c.01-.28.03-.56.04-.84.02-.28.04-.56.06-.84.02-.28.05-.56.07-.84.03-.28.05-.55.08-.83.03-.28.06-.56.08-.84.03-.28.05-.56.07-.84.02-.28.04-.56.06-.84.01-.28.03-.56.04-.85,0-.12,0-.24,0-.36l-.06-.19h0s0,0,0,0v-.06s.03-.11.03-.14v-.06s.03-.04.04-.07c0-.02.01-.05.01-.07h0s.03-.08.03-.08l.04-.08.12.02.05-.03h0ZM266.62,108.35c-.07,0-.13,0-.2,0-1.45,0-2.56-.56-3.58-1.47-.34-.3-.67-.65-1-1.02h4.78v2.48ZM266.62,102.97c-.55.01-1.07.04-1.58.07-.58.03-1.13.05-1.68.06-.07,0-.14,0-.21,0-.04,0-.07,0-.1,0-.1,0-.19,0-.28,0-.21,0-.42-.02-.63-.03-.1,0-.2-.02-.31-.03-.22-.03-.44-.06-.66-.11-.07-.01-.15-.03-.22-.04-.28-.07-.57-.15-.85-.26-.06-.02-.13-.06-.19-.08-.22-.09-.44-.2-.66-.32-.09-.05-.18-.11-.27-.17-.2-.13-.41-.27-.61-.43-.09-.07-.17-.13-.26-.2-.29-.24-.57-.5-.86-.81-2.12-2.25-4.94-6.62-5.75-7.91-.28-.44-.33-.72-.35-1.11h.03c.54.03,1.07.03,1.59.03.96,0,1.91-.07,2.86-.17.16-.01.31-.03.47-.05.92-.12,1.84-.28,2.77-.5.16-.04.33-.08.49-.12.94-.24,1.88-.52,2.83-.87.13-.05.25-.1.38-.15,1.01-.38,2.02-.8,3.07-1.29.12.2.24.4.36.59l.21,4.58c.14,3.1.28,6.2.43,9.32M265.65,17.62c0,3.4,0,6.79,0,10.19-.4.02-.8.04-1.2.06h-.02c-.81.05-1.65.09-2.46.09-.12,0-.23,0-.34,0h-.14c-.08,0-.15,0-.23,0-.14,0-.28.02-.41.07h0s-.07-.03-.12-.04l-.06-.02c-.21-.08-.56-.16-.84-.21h.01s-.34-.06-.34-.06c-.04,0-.08-.01-.1-.01h-.03s-.01,0-.02,0h-.1s0-.01,0-.01c-.02,0-.03-.01-.04-.02-.03-.02-.08-.05-.17-.08-.08-.02-.19-.04-.31-.05-.08,0-.16-.01-.2-.03-.02,0-.04,0-.06-.01-.1-.11-.27-.3-.53-.33-.2-.02-.36-.05-.54-.12-.12-.05-.26-.14-.4-.23,0,0-.02-.01-.03-.02,2.31-2.44,4.63-4.88,6.95-7.32l1.75-1.84ZM262.93,15.95c-.64.59-1.28,1.17-1.91,1.73-2.55,2.28-4.96,4.43-6.68,7.46-.49-.24-.96-.5-1.42-.74-1.66-.9-3.23-1.75-5.3-1.75-.1,0-.2,0-.3,0h0c.01-.22.12-.29.39-.48l.08-.06c4.37-3.18,9.33-4.55,14.57-6l.58-.16h0ZM246.67,24.92c.28,0,.6,0,.85.07v.04s.16,0,.16,0c.48.03,1.02.08,1.64.28,0,.09.02.22.15.28.13.06.29.13.47.19.16.06.33.13.48.19l.08.04c.67.3,1.36.61,2,.99h0s.03.06.06.09c.04.05.08.07.11.09.03.02.05.03.07.04h0c.02.09-.07.44-.11.52-.03.06-.06.1-.06.14,0,.03-.02.08,0,.14l-6.04,12.4-6.44-.62h0c.18-.5.57-.88.98-1.29.45-.44.91-.9,1.09-1.53.07-.23,0-.4-.06-.5-.23-.34-.83-.4-1.31-.45-.17-.02-.33-.03-.42-.06h-.06s-2.65.8-2.65.8c-2.41.74-4.8,1.47-7.23,2.23.29-.45.52-.83.75-1.21.44-.72.85-1.4,1.58-2.39,2.42-3.29,5.84-6.9,8.93-9.44l.15-.12c.4-.33.6-.49,1.06-.66.09-.03.19-.06.27-.07h0s0,.02.01.03l.08.09h.1s0,0,0,0c.05,0,.17-.02.26-.04.01,0,.02,0,.04,0l.12-.03c.13-.03.39-.1.54-.15.03,0,.08-.02.12-.06l.21-.05c.08-.02.17-.04.25-.05l.07.06.1-.02c.13-.02.23-.03.33-.03s.21,0,.33.02c.1,0,.21.02.34.02h.01c.12,0,.25,0,.39,0h.19ZM229.87,43.2c.25-.09.48-.18.69-.27.02,0,.05-.02.06-.03.94-.42,1.83-.81,2.69-1.03-.05.1-.14.22-.21.33-.65,1.08-1.97,2.34-3.09,3.39-.69.64-1.28,1.19-1.57,1.58-.1.13-.19.24-.28.33-.12.14-.23.26-.33.36-.16.17-.26.3-.33.43-.07.14-.1.28-.08.47.02.13.06.29.13.49.3.93,2.21,2.16,3.75,3.04,1.48.83,2.92,1.44,4.32,2.03,1.45.61,2.83,1.19,4.2,1.98-3.05-.49-6.1-.96-9.15-1.44l-4.92-.77-.05.02s-.04.01-.06.02c-.05.02-.11.03-.18.07-.05.02-.22.08-.22.28-.02.29-.02.62,0,.97.14,2.5,1.08,6.3,1.29,7.13.45,1.77.88,2.98,1.29,4.15.25.73.52,1.49.79,2.37-1.8-1.95-3.62-3.89-5.39-5.78-1.1-1.17-2.2-2.35-3.3-3.52-.08-.08-.15-.16-.23-.24h0s-.09-.11-.09-.11l-4.09,1.51-6.47,2.38c1.66-1.88,1.64-1.6,3.3-3.48l3.73-3.27,1.99-1.74.13-.15-.15-.13c-3.07-2.56-6.14-5.12-9.21-7.68l-2.53-2.11c1.82.42,3.8.66,5.79.89,1.98.24,3.96.47,5.78.9l.08.02.06-.04c.15-.1.29-.2.44-.29.17-.12.34-.23.51-.35l.04-.02.03-.03.74-23.03h0s.04-.03.06-.03c0,0,0,0,0,0,0,0,.01,0,.02.01.01,0,.03.03.05.06,0,.02.02.04.03.06.01.04.03.1.05.17,0,.03.02.06.03.1.03.12.06.26.1.45,0,.01,0,.01,0,.02,0,.03.03.06.04.09.03.05.04.1.06.15.2,1.01.7,3.35,1.11,5.35.17.8.32,1.54.44,2.13.06.29.1.54.14.74.25,1.31.5,2.64.77,3.98.39,1.97.81,3.95,1.31,5.93,0,.01.1.54.25,1.1.07.28.16.56.25.8.09.23.19.41.28.47.01,0,.09,0,.16,0,.04,0,.08,0,.14-.02.07,0,.17-.03.27-.04.08-.01.15-.02.24-.04.12-.02.25-.05.39-.08.1-.02.2-.04.32-.07.15-.03.31-.07.46-.1.13-.03.25-.06.39-.09.17-.04.34-.08.51-.13.13-.03.27-.07.4-.1.18-.05.35-.1.53-.15.13-.04.27-.07.4-.11.19-.05.35-.11.53-.17.11-.04.24-.08.34-.11M219.82,64.99c1.06,1.09,2.09,2.23,3.1,3.34,1.51,1.66,3.07,3.39,4.73,4.96.35.33.76.58,1.14.82.31.19.64.39.93.63h0c.17.14.29.34.42.55.13.21.26.42.45.61.34.33.85.55,1.3.76l.27.13c.09.05.21.09.33.1.03,0,.06.01.09.01.81-.06,1.41-.38,1.81-.97.16-.23.16-.52.15-.81v-.14c0-.14-.01-.26-.07-.47-1.19-4.21-2.71-8.36-4.2-12.39,3.19.35,5.77,1.77,8.51,3.28.67.37,1.36.75,2.06,1.12h0c-.2,7.1,1.85,13.35,4.03,19.97-.41-.03-1.8-.68-2.49-1.01l-.44-.21c-.62-.29-1.52-.67-2.55-1.11-1.76-.74-3.96-1.67-5.42-2.45-1.16-.62-2.85-1.35-5.01-2.17-.95-.36-2.05-.59-3.11-.81-.3-.06-.59-.12-.87-.18-.16-.03-.32-.04-.48-.04-.11,0-.22,0-.33,0h0c-.11,0-.22.01-.32.01-.11,0-.22,0-.33-.03h0c-1.51-4.48-2.92-8.89-3.71-13.5M265.61,85.19c-.08.03-.15.06-.22.12-.02.02-.05.05-.06.07-.01.01-.03.03-.02.03-.92.28-1.72.63-2.38,1.06-.08.05-.12.11-.15.17-.78.11-1.54.31-2.27.58-.1.04-.15.11-.19.18-.6.08-1.19.26-1.75.44-.23.07-.47.15-.7.21-.79.22-1.46.32-2.23.34-.37.01-.74.03-1.1.04-.46.02-.91.04-1.37.04-.06,0-.12,0-.18,0-.3,0-.6,0-.92-.03h-.01c-.18-.01-.37-.01-.55-.02-.52,0-1.02,0-1.54-.3-.43-.23-.72-.42-.96-.65-.39-.38-.63-.88-1.04-1.93-.61-1.57-1.12-2.99-1.76-5.62-.1-.41-.23-.91-.38-1.46-.73-2.77-1.93-7.35-1.4-9.97,0,0,.02,0,.03,0,.8.2,1.67.4,2.56.6.29.06.6.11.89.17.65.13,1.31.25,2,.35.37.06.75.1,1.13.15.65.08,1.3.14,1.96.19.4.03.81.05,1.22.06.95.03,1.91.03,2.88-.05h0c1.97-.16,3.57-.83,5.26-1.53.75-.31,1.53-.64,2.34-.91.16,3.34.33,6.68.5,10.02.13,2.54.26,5.09.38,7.63M249.13,41.4c-.32-3.29,3.29-9.75,5.65-11.78.01,0,.02-.01.03-.02.11-.09.21-.17.29-.21.03-.02.06-.02.08-.03.05-.02.1-.04.14-.04,0,0,0,0,0,0,0,0,.01,0,.02,0,.1,0,.18.06.27.13.13.1.29.23.53.24.31.01.37.04.48.09.08.03.17.07.33.12.24.07.56.2.85.33.2.08.4.17.56.23.41.15.74.26,1.15.34l.43.09c.75.16,1.52.32,2.29.34h0c.7.02,1.37-.01,2.06-.05h.01l.56-.03c.21,0,.4-.06.59-.1.05-.01.1-.02.15-.03h0c-.06,2.51-.12,5.02-.17,7.53-.06,2.53-.12,5.07-.17,7.6,0,0-.01,0-.02,0-.62.18-1.22.3-1.84.39-.21.03-.41.03-.62.04-.32.03-.65.07-.97.07-.08,0-.16-.02-.24-.02-.49,0-1-.07-1.51-.14-.24-.03-.47-.04-.72-.09-.77-.14-1.56-.34-2.41-.61-.13-.04-.27-.08-.41-.12-.15-.04-.29-.08-.41-.13l-.03-.08-.09-.04c-.47-.21-.93-.42-1.39-.63-.12-.06-.24-.08-.36-.1-.02,0-.04,0-.07-.01,0-.07-.05-.12-.09-.15-.06-.04-.16-.09-.29-.15l-.09-.04s-.08-.04-.12-.05c-.02-.02-.04-.04-.06-.06-.09-.06-.28-.17-.42-.23-.1-.05-.33-.12-.48-.17v-.07s-.17-.04-.17-.04c-.26-.05-.65-.17-.87-.28h0c.02-.06.07-.21-.04-.33-.09-.1-.25-.19-.39-.26l-.09-.05c-.11-.06-.24-.09-.35-.12-.01,0-.03,0-.05-.01,0-.04-.01-.09-.05-.13-.04-.06-.09-.08-.15-.11-.06-.04-.12-.05-.17-.06-.02,0-.05,0-.04,0,0,0,0,0,0,0h0c-.04-.12-.09-.2-.15-.26-.17-.19-.41-.21-.58-.22-.13,0-.23-.01-.3-.07-.07-.06-.12-.17-.14-.39M245.99,52.06c.62-2.19,1.26-4.46,1.93-6.67h.03c.89,0,2.18.86,3.23,1.57.61.41,1.13.76,1.51.91.6.23,1.18.42,1.75.59.19.06.38.09.56.14.37.1.74.19,1.11.27.22.04.42.07.64.1.33.05.66.11.98.14.22.02.44.03.66.05.31.02.62.04.93.04.15,0,.3,0,.44,0,.83-.01,1.66-.06,2.52-.17.09-.01.18-.03.27-.04.9-.12,1.81-.29,2.77-.49-.09,2.87-.18,5.75-.26,8.62-.06,2.08-.12,4.16-.19,6.24-.03,0-.07.02-.1.02-.13.03-.28.06-.41.17l-.06.05c-.16.13-.41.35-.55.42-.06.03-.12.06-.16.12,0,0-.02.01-.04.02-.19.1-.78.44-.97.55-.13.07-.19.12-.26.16l-.11.07c-.5.31-1.04.61-1.71.93-.13.06-.29.11-.45.16-.15.05-.3.09-.42.15-.1.05-.18.1-.24.15-.08.06-.13.09-.24.11-.27.05-.89.19-1.09.24-.14.04-.2.08-.24.13-.6.2-1.18.25-1.8.3-.24.02-.47.04-.71.06h0s-.04,0-.07,0c-.07,0-.13-.01-.21-.03h0c-.06-.01-.13-.03-.22-.04-.33-.04-.66-.06-1.01-.06-.38,0-.77.02-1.15.04l-.39.02h-.04c-.07,0-.11-.01-.17-.04h0c-.06-.03-.15-.06-.29-.09-.15-.03-.35-.03-.56-.04-.22,0-.44-.01-.61-.04h0c-.1-.06-.19-.05-.26-.04-.02,0-.04,0-.06,0-.05,0-.13-.04-.19-.08-.06-.03-.11-.06-.17-.09-.11-.05-.24-.06-.37-.07-.06,0-.12-.01-.17-.02-.09-.02-.25-.03-.38-.05-.02,0-.04,0-.07,0l-.28-.03c-.05,0-.1-.01-.18-.02-.04,0-.1-.03-.15-.06-.05-.03-.1-.05-.16-.07-.16-.06-.35-.1-.48-.12-.18-.03-.35-.05-.53-.07-.31-.04-.61-.08-.92-.14-.05-.02-.1-.02-.13-.03-.04,0-.1-.01-.17-.03-.13-.03-.31-.06-.49-.07-.08,0-.2-.08-.3-.17-.1-.1-.19-.22-.23-.32-.04-.11-.12-.18-.19-.22-.07-.04-.15-.05-.21-.06-.02,0-.04,0-.06-.01,0-1.08,0-2.17,0-3.26v-1.67h0c.58.02,1.23.03,1.87,0h0s.06,0,.08-.01c.55-.1,1.14-.24,1.65-.6.14-.1.26-.26.32-.35.03-.04.05-.07.07-.13.02-.06.02-.09.01-.17,0-.17-.02-.29-.06-.38,0-.02-.01-.04-.01-.07-.02-.08-.04-.2-.13-.29-.93-.93-2.13-1.42-3.28-1.89l-.19-.08c.4-1.37.79-2.75,1.18-4.13M241.24,59.65v1.16c-.01.84-.01,1.67-.01,2.52h0s-.1.01-.15.01c-.02,0-.04-.01-.06-.01-.17-.01-.35-.06-.54-.13-.04-.01-.07-.03-.1-.04-.19-.08-.38-.17-.54-.26l-.13-.07c-.41-.21-.91-.49-1.38-.75l-.43-.24c-.57-.32-1.53-.83-2.05-1.09-.14-.07-.31-.16-.47-.24-.45-.24-.88-.47-1.15-.53-.59-.13-1.2-.17-1.79-.22-1.19-.09-2.27-.17-2.93-.86-.22-.23-.39-.52-.51-.91,2.89.39,5.77.79,8.66,1.18l3.6.49ZM240.36,53.39c-3.03-1.68-6.05-3.36-9.08-5.04h0c.79-.75,1.56-1.55,2.29-2.33.97-1.03,1.98-2.09,3.06-3.02l.08-.07c.19-.16.43-.37.56-.44.01,0,.02-.01.02-.01.02,0,.04,0,.07.01.65.04,1.02.1,1.78.26.42.09.77.18,1.17.29.31.08.65.17,1.07.27.86.21,2.38.61,3.59.94-.89,3.09-1.87,6.66-2.43,10.34l-2.17-1.2ZM225.71,82.31c1.4.62,2.86,1.07,4.27,1.51,1.23.38,2.51.78,3.74,1.28,1.72.7,3.41,1.57,5.03,2.41,2.7,1.39,5.49,2.83,8.55,3.57.84,1.67,1.89,3.23,2.9,4.75.91,1.36,1.85,2.75,2.63,4.23-.19-.03-.4-.07-.59-.12-.32-.07-.64-.14-.93-.14-.06,0-.11,0-.16,0,0,0,0,0,0,0-.1,0-.2.01-.3.01-.01,0-.02,0-.03,0-.2,0-.39-.02-.56-.06-.04,0-.06-.01-.1-.02-.17-.04-.31-.09-.38-.15l-.03-.03s-.06-.07-.1-.09l-.15-.09-.04.04c-.31-.1-.61-.11-.9-.11-.24,0-.46,0-.68-.06l-.15-.03-.02.03c-.48-.03-.97-.13-1.51-.31l-.15-.03v.02s-.28-.04-.28-.04c-1.47-.25-2.99-.5-4.5-.61-.17-.01-.34-.01-.5-.01-.2,0-.39,0-.58-.02-.17-.02-.33-.06-.48-.1-.14-.03-.27-.07-.43-.09-.33-.05-.63-.06-.93-.05-.41.01-.79.06-1.17.19t0,0h0l.02-.04-.97-1.06c-2.59-2.82-4.82-5.25-6.98-8.64-.79-1.26-1.81-3.09-2.71-4.71-.28-.5-.55-.98-.8-1.43M240.71,100.86c.54.08,1.06.17,1.57.24,1.91.29,3.71.57,5.91,1.06.58.13,1.19.23,1.84.33,1.52.25,3.25.52,4.8,1.31.35.17.81.59,1.31,1.09.83.84,1.73,1.93,2.27,2.59l.14.17c.09.11.17.19.23.26.16.17.22.24.23.41-7.72-.5-13.4-2.82-18.3-7.46M268.28,66.18c.06,0,.14-.03.21-.09.07-.06.19-.11.22-.11h0s.07,0,.11,0c.02,0,.04,0,.06,0h0c.07,0,.16.02.25,0,1.17-.22,2.43-.4,4.08-.58.08,0,.14-.05.22-.1h.01c.89-.1,1.8-.12,2.7-.12.06,0,.12,0,.18,0,.45,0,.9,0,1.34.01.35,0,.7,0,1.06,0,.02,0,.05.01.09.04.06.03.12.07.21.08.43.05.88.07,1.3.1.35.02.7.04,1.06.07h0s.1,0,.17-.02h0c.5.03,1.01.1,1.5.17.22.03.44.06.66.09.1.01.21.03.32.04.28.04.57.08.85.08h0c.13,0,.2-.04.26-.09.01,0,.03,0,.04-.01.03-.02.06-.04.07-.04h0c1.28.11,2.5.35,3.79.6l.4.08h0c.14.03.22-.03.28-.06.03-.02.04-.03.06-.03.01,0,.02,0,.05.02.24.13,1.02.4,1.31.42h0c.06,0,.08,0,.08,0,.04.03.08.05.16.06.03,0,.06.01.09.02.04.01.09.02.13.03h0c-.04,1.22,0,2.2.05,3.14.07,1.44.14,2.81-.11,4.94-.26,2.25-1.39,7.85-2.99,9.79-.03.01-.06.04-.14.11-.08.08-.27.28-.44.28h-.04c-.62,0-1.24-.15-1.81-.31-.67-.18-1.34-.28-1.92-.36-.92-.13-1.84-.34-2.74-.54l-.47-.11c-.41-.09-.83-.12-1.23-.15-.34-.02-.65-.04-.96-.09-.02,0-.03,0-.04,0-.06,0-.1.02-.14.04h0c-.13,0-.26.01-.38.01-.08,0-.15-.02-.23-.02-.39-.01-.78-.04-1.17-.08-.51-.05-1.03-.11-1.56-.1-.88.02-1.78.08-2.64.15-.3.02-.6.04-.89.06-.5.03-.99.15-1.47.26-.45.1-.91.21-1.36.25-.05,0-.08.02-.12.03h0s0-.01-.02-.02c-.01-.02-.03-.04-.05-.06-.01-.01-.02-.03-.04-.04-.15-5.95-.3-11.9-.44-17.85M268.71,88.54c.15-1.95,1.87-2,3.12-2.04.37-.01.69-.02.93-.08,1.27-.3,2.47-.42,3.66-.42,2.35,0,4.59.48,6.92.99,1.15.25,2.34.51,3.56.71-.05.27-.03.37,0,.44-.02.07-.25.45-.36.64-1.55,2.59-4.19,6.56-6.54,9.24-1.21.48-2.41.97-3.6,1.45-2.24.92-4.56,1.87-6.88,2.68h0c-.03-1.59-.22-3.88-.41-6.09-.25-2.96-.51-6.01-.39-7.51M269.67,106.64c-.02-.07-.05-.12-.08-.16.01-.43.17-1.05.36-1.29.1-.13.19-.14.32-.15.08,0,.17-.01.25-.05.08-.03.1-.04.12-.05.03,0,.05-.01.13-.05.11-.06.25-.12.35-.16.04-.02.09-.03.14-.05.08-.02.15-.05.2-.07.06-.03.09-.07.12-.1,1.05-.55,2.03-.85,3.17-1.2l.51-.16c.44-.13,1.01-.36,1.55-.58-.15.21-.31.41-.47.61-.12.16-.25.31-.37.47-.63.84-1.37,1.6-2.04,2.27l-.12.12c-.11.1-.22.21-.27.28-.08.12-.16.29-.25.47-.08.17-.21.45-.28.49-.01,0-.03,0-.04.01-.25.11-.52.2-.8.26-.1.02-.21.02-.31.04-.18.03-.36.06-.54.06-.01,0-.02,0-.03,0-.21,0-.41-.05-.6-.09-.1-.02-.2-.02-.29-.05-.28-.09-.54-.22-.76-.41.09-.15.06-.38.03-.48M278,105.92c.75-1.03,1.49-2.05,2.24-3.07.5-.69,1.01-1.39,1.51-2.08,0,0,.02,0,.03,0,1.13-.16,2.18-.27,3.2-.35.32-.03.62-.04.93-.06.72-.05,1.41-.07,2.09-.08.17,0,.36-.02.53-.02.13,0,.24.02.37.02,1.02,0,2.02.05,2.99.14h0c-.12.15-.29.24-.5.35-.08.04-.17.08-.25.13-2.23,1.26-4.93,2.56-7.23,3.46-2.16.85-3.78,1.37-5.91,1.58M334.85,96.03s-.01-.03-.02-.04c-.4-.93-1.4-1.45-2.39-1.26l-12.78,2.52c.04-.19-.13-.38-.09-.57-.02-.17-.02-.1-.04-.28,0-.02-.02-.05-.02-.07-.04-.2-.15-.45-.17-.63l-.08-.56v-.03h0s0-.1-.01-.14c-.02-.18-.06-.4-.1-.64-.1-.56-.24-1.2-.33-1.61-.03-.14-.05-.24-.09-.31-.08-.22-.13-.66-.2-.84-.08-.22-.13-.52-.2-.8-.02-.06-.03-.12-.04-.17-.04-.12-.06-.25-.09-.37-.1-.36-.19-.71-.28-1.11l-.06-.29c-.04-.19-.07-.35-.1-.51-.07-.37-.13-.72-.28-1.19l-.24-.81c-.14-.47-.45-.84-.75-1.05-.13-.09-.24-.15-.35-.18,0,0-.02,0-.03,0-.04-.01-.1-.03-.17-.05-.03,0-.07,0-.1-.01-.07-.01-.14-.03-.22-.03-.08,0-.16.01-.24.03-.04,0-.08,0-.13.02-.13.04-.27.09-.4.19-.66.46-1.09.93-1.28,1.4-.59,1.42-1.03,3.12-1.42,4.62l-.28,1.07c-.4,1.53-.75,2.85-1.29,4.32l-.09.24c-.04.1-.1.26-.16.39-.62-.27-1.25-.55-1.88-.82-.81-.35-1.62-.7-2.39-1.04h0c5.68-7.45,11.25-15.64,11.96-26.4,1.13-17.05-4.15-30.96-16.14-42.4-.8-.76-1.63-1.52-2.49-2.26-1.24-1.07-3.25-2.22-5.39-3.45l-.89-.51c-8.26-4.78-15.92-7.29-23.4-7.7-.03-1.77-.06-7.49-.08-12.65h-4.83c.05,5.41.15,9.97.32,12.26l-1.12.13c-4.62.51-6.93.77-12.28,3.03-6.22,2.63-15.9,8.8-20.7,14.19-1.68,1.89-2.4,3.4-3.24,5.15-.24.51-.49,1.02-.77,1.57-.03-.09-.05-.19-.08-.28-.98-3.21-1.62-6.32-2.34-10.04l-.06-.31c-.46-2.34-1.15-4.73-1.88-7.05-.33-1.04-.66-2.07-.99-3.07-.02-.07-.04-.14-.07-.21-.04-.15-.18-.44-.38-.75-.13-.2-.28-.41-.44-.59-.24-.26-.5-.46-.74-.46-.01,0-.03-.01-.05-.02-.03-.02-.07-.04-.09-.04-.08,0-.14-.03-.19-.05-.03-.01-.06-.03-.11-.03-.21,0-.4.04-.56.08-.27.06-.45.16-.6.25-.12.08-.21.15-.24.19-2.2,3.08-1.65,10.76-1.86,15.89-.04.99-.08,1.9-.13,2.68-.04.56-.2,2.13-.27,2.72-.12.98-.09,1.91-.13,2.78-.1,2.07-.18,3.01-.2,4.7-.32-.04-.68-.08-1.04-.12-.61-.06-1.28-.12-1.96-.18-.45-.04-.91-.08-1.36-.13-1.49-.15-2.96-.34-4.09-.65-.46-.13-.89-.25-1.28-.35l-.59-.17c-1.68-.46-3.28-.9-4.38-1.1-.03,0-.06-.01-.1-.02-.2-.03-.39-.07-.55-.1h0c-.9-.02-1.86-.03-2.91-.03-.02.01-.06.02-.08.03-.02.01-.04.02-.06.03-.08.03-.13.06-.17.1-.01.01-.04.03-.07.05-.12.08-.36.28-.45.38-.09.1-.1.12-.17.22l-.04.07s-.07.11-.1.17v.93c.02.08.04.16.07.28.08.29.3,1.01.56,1.39.03.05.09.14.14.18,1.45,1.38,3.07,2.33,4.79,3.33l.54.32c1.11.65,2.11,1.25,3.17,1.98,1.02.7,2.05,1.51,3.04,2.29l.12.09c1.32,1.04,2.87,2.22,4.48,3.25h0c-.41.5-1.02,1.03-1.56,1.49l-.15.13c-.16.13-.29.24-.42.36,0,0-.01.01-.02.02-.02.02-.02.02-.04.04l-.19.19c-.93.92-.74.72-.89.87-.09.1-.3.32-.96,1l-.17.18c-.85.88-2.84,2.93-3.75,4.05-.17.21-.86,1.12-1.04,1.37-.11.16-.18.25-.26.34-.04.05-.08.1-.13.17-.37.47-.69.9-1.02,1.45l-.15.25c-.07.11-.25.42-.31.56-.08.15-.14.37-.16.53v.1s0,.07.01.13c.02.13.16.51.22.62.02.03.02.04.02.05l.06.1c.05.06.09.09.14.12.09.05.16.1.23.14.19.13.36.24.74.31.01,0,.04,0,.05,0,.06.01.13.02.23.03.05,0,.11,0,.16.01.1,0,.19.01.31.02.05,0,.1,0,.15,0,.28,0,.58-.03.88-.11h0c.45-.13.93-.35,1.41-.56.14-.06.27-.13.4-.18.03-.01.11-.05.14-.07,2.02-.98,4.33-2.28,6.18-3.32l.58-.33c.52-.29.8-.45.96-.53.16-.08.18-.09.18-.09.12-.07.23-.1.33-.1.03,0,.05.02.08.02.02,0,.04,0,.06.02.1.04.18.1.19.19,0,0,0,0,0,0,.06.24.2,1.9.2,1.9,0,.04.01.08.02.11.02.13.04.25.06.34.11.6.21,1.17.3,1.74.21,1.26.41,2.44.79,3.74,2.47,8.44,6.09,15.9,11.72,24.2.57.84,2.02,2.31,2.88,3.19l.09.09c.06.06.26.29.32.36l.06.06c.02.08.08.13.15.18.06.04.13.07.17.09.02,0,.04.02.05.02h0c3.96,3.75,12.02,9.69,16.74,10.52,0,0,0,0,.01,0,1.58.28,3.1.49,4.59.66.37.04.74.09,1.1.13,1.46.15,2.88.27,4.26.34.09,0,.17,0,.26,0,1.31.06,2.58.06,3.84.04.35,0,.69-.01,1.03-.02,1.31-.05,2.61-.12,3.89-.24.08,0,.16-.02.25-.03,1.22-.12,2.43-.28,3.64-.47.32-.05.65-.1.97-.16,1.27-.21,2.53-.45,3.8-.73.04,0,.08-.02.13-.03,1.25-.28,2.52-.59,3.8-.93.34-.09.68-.18,1.02-.27,1.29-.35,2.59-.72,3.93-1.11,0,0,.02,0,.03,0,4.25-1.27,8.14-3.7,11.89-6.05,1.24-.78,2.52-1.58,3.8-2.32.47.51.95,1.01,1.44,1.52.96.99,1.95,2.02,2.81,3.1-.9.63-2.36,1.66-3.82,2.69-1.9,1.33-3.79,2.67-4.46,3.13-.24.17-.41.28-.52.37,0,0-.01,0-.01,0l-.1.07h0c-.11.1-.13.14-.11.19-.45.49-.72.89-.97,1.45-.29.65-.37,1.13.04,1.86.09.17.21.32.35.46.41.42,1,.69,1.64.76.34.03.69,0,1.04-.04.12-.01.24-.02.35-.03.37-.06.73-.13,1.05-.21,0,0,.01,0,.02,0,.14-.03.28-.06.42-.09.21-.04.42-.09.65-.15l.1-.03s.05,0,.09,0c.1,0,.23-.02.38-.06,2.03-.56,4.06-1.29,6.03-2,1.22-.44,2.48-.88,3.72-1.29.05.11.09.23.13.36.06.18.14.56.17.72,0,.06.01.09.02.11,0,.04,0,.05.03.12.01.04.04.1.11.14.2.31.24.65.28,1.04.02.18.04.37.08.56.15.7.7,2.41.72,2.48.06.17.09.27.13.33l.22.54c.26.63.53,1.29.73,1.86.18.53.28.96.39,1.41.04.19.09.39.14.6l.02.08c.02.09.04.2.07.26.21.54.35.85.67,1.33.18.27.42.53.67.77.26.24.54.46.83.63.05.03.1.06.14.07.03,0,.06.01.09.01.03,0,.06,0,.09,0v-.1s.02.1.02.1h.19s0-.03,0-.03c1.05-.23,1.52-1.02,1.9-1.83.12-.25.38-.88.43-1.2.07-.4.18-1.09.27-1.67.06-.35.1-.66.13-.82.31-1.79.47-3.21.65-4.85l.09-.79c.03-.31.06-.6.09-.9.03-.3.06-.6.1-.91.44.08.89.15,1.33.23,3.19.54,6.2,1.04,9.22,2.05l.05.02.12-.03s.02,0,.1-.02c.15-.03.67-.19.84-.29l.06-.03q.07-.04.16-.1c.1-.07.31-.25.39-.34l.04-.03h0s.08-.06.12-.16c.02-.04.05-.1.05-.19-.02-.23.02-.37.06-.53.1-.35.13-.62-.24-1.17-.22-.34-.51-.67-.84-1-.99-.98-2.36-1.91-3.52-2.7l-.23-.15c-.21-.14-.43-.28-.66-.44-.74-.48-1.57-1.03-2.19-1.61-.14-.13-.26-.23-.48-.39l-.15-.12c-.22-.16-.57-.43-.83-.66.16-.08.33-.16.5-.25.46-.23.93-.48,1.3-.57,1.11-.28,2.84-1.2,3.45-1.51l.38-.23.25-.17c.73-.69,1.59-1.13,2.35-1.68.3-.22,1.02-.9,1.64-1.49.65-.62.83-1.58.48-2.4"/>
</svg>