<?xml version="1.0" encoding="UTF-8"?>
<svg id="Calque_1" xmlns="http://www.w3.org/2000/svg" version="1.1" viewBox="0 0 431.92 204.72">
  <!-- Generator: Adobe Illustrator 30.2.1, SVG Export Plug-In . SVG Version: 2.1.1 Build 1)  -->
  <defs>
    <style>
      .st0 {
        fill: #c94a2e;
      }
    </style>
  </defs>
  <path class="st0" d="M39.46,134.48c-.08-2.21-.14-4.58-.17-7.07-.03-2.55-.04-5.38-.04-8.48l-.06-11.08c-.61-.42-1.2-.88-1.77-1.43-.26-.23-.49-.51-.69-.82-.35-.53-.63-1.2-.88-2.08-.11-.4-.15-.68-.19-.99-.02-.17-.04-.36-.04-.59-.01-.47.06-.92.21-1.36.15-.41.33-.72.47-.94.14-.23.29-.44.51-.68.24-.27.56-.54.86-.75.22-.17.44-.31.69-.42.46-.25.95-.39,1.46-.44.49-.04.89-.08,1.31-.08.78,0,1.42.12,2.3.28,1.01.18,2.32.54,3.72.93l.46.13.93.26.09.02c.57.16,1.44.28,2.34.38h0c0-.21.01-.4.02-.61.01-.54.02-1.15.1-1.82.05-.42.17-1.55.19-1.95.04-.58.07-1.27.1-2.01.04-.85.04-1.8.05-2.78.02-2.16.03-4.36.3-6.36-2.92.36-5.42.58-7.46.67-2.14.09-4.19.13-6.08.13H15.34c-1.98,0-4.01-.04-6.13-.13-2.03-.08-4.58-.31-7.59-.68l-1.63,18.24c1.31-.24,2.49-.42,3.5-.55,1.15-.14,2.27-.26,3.33-.35,1.05-.08,2.15-.14,3.29-.17,1.13-.03,2.38-.04,3.75-.04h.44v18.08c0,3.1-.01,5.93-.04,8.48-.03,2.57-.09,4.94-.17,7.07-.08,2.13-.23,4.18-.43,6.1-.18,1.72-.45,3.44-.8,5.1h27.75c-.3-1.67-.54-3.39-.73-5.1-.2-1.88-.35-3.93-.43-6.1Z"/>
  <path class="st0" d="M197.55,94.99c.13-3.39.6-6.9,1.4-10.47h-23.85c.79,3.55,1.26,7.07,1.4,10.47.14,3.56.22,6.58.22,8.97l.12,6.72-14.84-26.15h-26.4c.35,1.93.63,3.85.81,5.71.2,2.01.35,4.19.43,6.48.08,2.27.14,4.79.17,7.5.02,2,.03,4.22.04,6.63.8,4.07,1.06,8.38.76,12.98-.12,1.78-.39,3.47-.78,5.09-.03,1.85-.09,3.94-.19,6.29,0,.1-.01.2-.02.3.09.2.17.4.24.61l.18.61c.18.58.26,1.03.32,1.35l.06.33.05.24c.06.32.12.56.19.79.07.21.12.44.17.67v.06c.1.28.15.52.19.71.08.24.12.43.14.56l.04.19c.42-.03.83-.08,1.22-.12,1.64-.2,2.85-.33,4.17-.46l.55-.06c.11-.01.18-.02.3-.04l.17-.02c.27-.04.57-.08.87-.1l.14-.04h.55c.31,0,.61.04.91.11.18.04.41.1.68.2.35.12.82.3,1.34.69.81.58,1.72,1.68,1.99,3.07.07.28.09.56.1.83h7.89c-.79-3.57-1.26-7.08-1.39-10.47-.15-3.54-.22-6.56-.22-8.97l-.09-15.56,22.2,34.99h18.46c-.21-1.99-.38-3.84-.51-5.5-.15-1.79-.25-3.68-.3-5.62-.06-1.93-.09-4.01-.09-6.16v-24.44c0-2.39.07-5.4.22-8.97Z"/>
  <path class="st0" d="M209.19,127.41c-.03,2.48-.08,4.86-.17,7.07-.09,2.16-.23,4.21-.43,6.1-.18,1.72-.45,3.43-.8,5.1h27.75c-.3-1.69-.55-3.41-.73-5.1-.2-1.89-.35-3.94-.43-6.1-.09-2.18-.15-4.56-.17-7.07-.03-2.55-.04-5.38-.04-8.48v-7.66c0-3.1.01-5.93.04-8.48.03-2.5.08-4.88.17-7.07.08-2.15.23-4.21.43-6.14.18-1.73.45-3.43.8-5.06h-27.74c.3,1.61.54,3.31.72,5.06.2,1.91.35,3.98.43,6.14.09,2.21.14,4.58.17,7.07.03,2.55.04,5.38.04,8.48v7.66c0,3.1-.01,5.93-.04,8.48Z"/>
  <path class="st0" d="M300.41,121.34c0-1.9.01-3.38.04-4.44.03-1.06.06-1.88.08-2.46.03-.61.09-1.06.19-1.39l.14-.46h-20.73c.14.43.26.85.37,1.26.15.58.28,1.2.4,1.84.12.66.21,1.37.26,2.11.06.76.09,1.64.09,2.61v6.49l-.27.11c-.7.29-1.42.54-2.16.75-.76.21-1.77.32-3.09.32-3.25,0-5.54-1.13-6.8-3.36-1.21-2.15-1.82-5.45-1.82-9.81,0-3.92.79-7.04,2.36-9.29,1.6-2.29,4.4-3.46,8.32-3.46,3.4,0,6.39.31,8.88.92,2.24.55,4.48,1.21,6.68,1.97l-2.54-19.67c-1.84-.63-3.9-1.15-6.12-1.53-2.32-.4-5.37-.6-9.05-.6-5.71,0-10.73.77-14.91,2.3-4.16,1.52-7.67,3.68-10.42,6.44-2.75,2.75-4.81,6.12-6.13,10.03-1.33,3.92-2,8.32-2,13.06s.7,8.87,2.08,12.76c1.38,3.88,3.45,7.29,6.14,10.13,2.69,2.84,6.1,5.07,10.12,6.65,4.03,1.58,8.77,2.38,14.08,2.38,3.28,0,6.27-.3,8.9-.89,2.63-.59,5.05-1.37,7.19-2.3,2.14-.93,4.1-1.99,5.82-3.15,1.63-1.09,3.14-2.22,4.5-3.34-.31-1.08-.61-4.42-.61-15.95Z"/>
  <path class="st0" d="M372.13,102.79c.03-2.51.08-4.88.17-7.07.09-2.18.23-4.24.43-6.14.18-1.73.45-3.43.8-5.06h-27.73c.57,2.83.92,5.86,1.06,9,.14,3.37.24,7.32.3,11.71v.45s-13.88,0-13.88,0v-.45c.06-4.43.18-8.37.35-11.72.17-3.15.54-6.17,1.11-9h-27.75c.3,1.61.54,3.31.72,5.06.2,1.92.35,3.98.43,6.14.08,2.15.14,4.52.17,7.07.03,2.55.04,5.38.04,8.48v7.66c0,3.1-.01,5.93-.04,8.48-.03,2.54-.09,4.92-.17,7.07-.09,2.16-.23,4.21-.43,6.1-.18,1.72-.45,3.43-.8,5.1h27.73c-.57-2.84-.93-5.85-1.06-8.96-.14-3.29-.24-7.21-.3-11.67v-.45s13.88,0,13.88,0v.45c-.06,4.48-.18,8.4-.35,11.68-.16,3.11-.54,6.12-1.11,8.96h27.75c-.3-1.67-.54-3.39-.73-5.1-.2-1.87-.34-3.92-.43-6.1-.09-2.18-.15-4.56-.17-7.07-.03-2.55-.04-5.38-.04-8.48v-7.66c0-3.1.01-5.93.04-8.48Z"/>
  <path class="st0" d="M430.29,83.72c-2.95.37-5.49.6-7.54.68-2.14.09-4.19.13-6.08.13h-22.89c-1.98,0-4.01-.04-6.13-.13-2.03-.08-4.58-.31-7.58-.68l-1.63,18.24c1.32-.24,2.49-.42,3.5-.55,1.15-.14,2.27-.26,3.33-.35,1.05-.08,2.15-.14,3.29-.17,1.13-.03,2.37-.04,3.75-.04h.44v18.08c0,3.1-.01,5.93-.04,8.48-.03,2.57-.09,4.94-.17,7.07-.08,2.13-.23,4.18-.43,6.1-.18,1.72-.45,3.44-.8,5.1h27.75c-.3-1.67-.54-3.39-.73-5.1-.2-1.88-.35-3.93-.43-6.1-.09-2.21-.14-4.58-.17-7.07-.03-2.55-.04-5.38-.04-8.48l-.09-18.08h.44c1.44,0,2.71.01,3.8.04,1.11.03,2.2.09,3.25.17,1.07.09,2.18.2,3.33.35,1.01.13,2.18.31,3.5.55l-1.63-18.24Z"/>
  <path class="st0" d="M136.59,158.62c.03-.24.05-.47.08-.7.02-.24.05-.47.08-.71.35.06.69.12,1.04.18,2.49.42,4.84.81,7.2,1.6h.04s.1,0,.1,0c0,0,.01,0,.08-.02.12-.02.53-.15.66-.22l.04-.02q.06-.03.12-.08c.08-.06.24-.19.31-.26l.03-.03s.06-.05.09-.13c.01-.03.04-.08.04-.15-.02-.18.01-.29.05-.41.08-.27.1-.48-.19-.92-.18-.26-.4-.52-.66-.78-.78-.77-1.85-1.49-2.75-2.11l-.18-.12c-.16-.11-.33-.22-.52-.34-.58-.38-1.23-.8-1.71-1.26-.11-.11-.21-.18-.37-.3l-.12-.09c-.17-.13-.44-.33-.65-.52.13-.06.26-.13.39-.2.36-.18.73-.37,1.01-.44.87-.22,2.22-.94,2.7-1.18l.29-.18.19-.13c.57-.54,1.25-.88,1.84-1.31.24-.17.8-.7,1.28-1.17.51-.49.65-1.23.38-1.88,0-.01-.01-.02-.01-.04-.31-.73-1.09-1.14-1.87-.98l-9.99,1.97c.03-.15-.1-.3-.07-.45-.02-.13-.01-.08-.03-.22,0-.02-.01-.04-.02-.06-.03-.15-.11-.35-.13-.49l-.06-.44v-.02s0-.07-.01-.11c-.01-.14-.04-.31-.08-.5-.08-.44-.19-.94-.25-1.26-.02-.11-.04-.19-.07-.24-.06-.17-.1-.51-.15-.65-.06-.17-.1-.41-.16-.63-.01-.04-.02-.09-.03-.13-.03-.09-.05-.2-.07-.29-.08-.28-.15-.56-.22-.87l-.05-.23c-.03-.15-.05-.28-.08-.4-.05-.29-.1-.56-.22-.93l-.19-.63c-.11-.37-.35-.65-.59-.82-.1-.07-.19-.12-.27-.14,0,0-.02,0-.02,0-.03,0-.08-.02-.13-.04-.02,0-.06,0-.08-.01-.05-.01-.11-.02-.17-.02-.06,0-.12,0-.19.02-.03,0-.06,0-.1.01-.1.03-.21.07-.31.15-.51.36-.85.73-1,1.1-.46,1.11-.8,2.44-1.11,3.61l-.22.83c-.32,1.19-.59,2.23-1.01,3.38l-.07.19c-.03.08-.08.2-.12.3-.48-.21-.98-.43-1.47-.64-.63-.27-1.26-.55-1.86-.81h0c4.44-5.82,8.79-12.22,9.34-20.62.89-13.32-3.24-24.18-12.61-33.12-.62-.6-1.27-1.18-1.94-1.76-.97-.83-2.54-1.74-4.21-2.7l-.69-.4c-6.45-3.73-12.43-5.7-18.28-6.01-.05-2.7-.08-8.81-.12-15.36.7-.7,1.09-1.1,1.79-1.8h4.67c2.12,0,4.27.04,6.38.13,2.02.08,4.47.31,7.26.68l2.44-18.24c-1.35.24-2.59.43-3.68.58-1.23.17-2.5.31-3.77.39-1.27.09-2.65.13-4.12.13h-8.12l-.02-.42c-.06-1.08-.09-2.25-.09-3.46v-4.4h4.91c2.75,0,5,.09,6.67.26,1.42.15,2.69.3,3.79.44l-.81-15.16c-1.06.15-2.32.3-3.76.45-1.67.17-3.89.26-6.58.26h-4.23v-6.48h7.19c1.47,0,2.85.04,4.12.13,1.27.09,2.54.22,3.77.39,1.07.15,2.31.35,3.68.59L115.54.48c-2.79.37-5.23.6-7.26.68-2.11.09-4.26.13-6.38.13h-18.5c-2.01,0-4.05.01-6.14.04-1.81.03-3.34.04-4.57.04.4,1.84.71,3.64.92,5.36.23,1.9.39,3.93.48,6.01.08,2.06.14,4.3.17,6.85.03,2.47.04,5.34.04,8.61v7.49c0,2.99-.01,5.7-.04,8.14-.03,2.53-.09,4.78-.17,6.9-.09,2.15-.25,4.24-.48,6.23-.21,1.8-.52,3.65-.92,5.49h20.05c0,7.14.07,14.09.28,16.85l-.88.1c-3.6.4-5.41.6-9.59,2.36-4.86,2.05-12.42,6.87-16.17,11.08-1.31,1.47-1.88,2.66-2.53,4.02-.19.39-.38.8-.6,1.23-.02-.07-.04-.15-.06-.22-.77-2.51-1.26-4.93-1.83-7.84l-.05-.25c-.35-1.83-.9-3.69-1.47-5.51-.26-.81-.52-1.62-.78-2.4-.02-.06-.03-.11-.05-.17-.03-.12-.14-.35-.29-.59-.1-.16-.22-.32-.34-.46-.19-.21-.39-.36-.58-.36-.01,0-.02,0-.04-.02-.03-.02-.06-.03-.07-.03-.06,0-.11-.02-.15-.04-.03-.01-.05-.02-.09-.02-.16,0-.31.03-.43.06-.21.05-.35.13-.46.19-.09.06-.17.12-.19.15-1.72,2.41-1.29,8.4-1.45,12.42-.03.77-.06,1.48-.1,2.09-.03.44-.15,1.66-.21,2.13-.1.76-.07,1.49-.1,2.18-.08,1.62-.14,2.35-.15,3.67-.25-.03-.53-.06-.82-.09-.48-.05-.99-.09-1.53-.14-.35-.03-.71-.06-1.06-.1-1.16-.12-2.31-.26-3.19-.51-.36-.1-.7-.19-1-.28l-.47-.13c-1.31-.36-2.56-.7-3.42-.86-.03,0-.05,0-.08-.01-.16-.03-.3-.06-.43-.08h0c-.7-.01-1.45-.02-2.27-.02-.02,0-.04.01-.06.02-.01,0-.03.02-.05.03-.07.02-.1.04-.14.08-.01,0-.03.02-.05.04-.09.06-.28.22-.35.29-.07.08-.08.09-.13.17l-.03.06s-.05.09-.07.13v.73c.01.06.03.13.05.22.06.23.23.79.44,1.09.02.04.07.11.11.14,1.13,1.07,2.4,1.82,3.74,2.6l.42.25c.86.51,1.65.97,2.47,1.54.8.55,1.61,1.18,2.38,1.79l.1.07c1.03.81,2.24,1.74,3.5,2.54-.32.39-.79.81-1.22,1.16l-.12.1c-.12.1-.22.19-.33.28,0,0,0,.01-.01.01-.01.02-.01.01-.03.03l-.15.15c-.73.72-.58.56-.69.68-.07.08-.24.25-.75.78l-.14.14c-.66.68-2.22,2.29-2.93,3.17-.13.16-.67.88-.81,1.07-.09.12-.15.2-.21.27-.03.04-.07.08-.1.13-.28.37-.54.7-.8,1.13l-.11.19c-.06.09-.19.33-.25.44-.06.12-.11.29-.13.41v.08s0,.05.01.1c.02.1.13.4.17.49.01.02.02.03.02.04l.05.08s.07.07.11.09c.07.04.13.08.18.11.15.1.28.19.58.24,0,0,.03,0,.04,0,.04,0,.1.02.18.03.03,0,.08,0,.12.01.08,0,.15.01.24.01.04,0,.08,0,.12,0,.22,0,.45-.02.69-.09h0c.35-.1.73-.27,1.1-.44.11-.05.22-.1.31-.14.02,0,.08-.04.11-.05,1.58-.76,3.39-1.78,4.83-2.59l.45-.26c.4-.23.63-.35.75-.41.12-.06.14-.07.14-.07.09-.05.18-.08.26-.08.03,0,.04.01.06.02.02,0,.03,0,.05.01.08.03.14.08.15.15.05.19.16,1.49.16,1.49,0,.03,0,.06.01.09.02.1.03.19.05.27.09.47.16.92.24,1.36.16.98.32,1.91.62,2.92,1.93,6.59,4.75,12.43,9.16,18.91.44.66,1.57,1.81,2.25,2.49l.07.07s.2.22.25.28l.04.05c.02.06.06.11.11.14.05.03.1.06.14.07.02,0,.03.01.03.01h0c3.09,2.93,9.39,7.57,13.08,8.22,0,0,0,0,.01,0,1.24.22,2.42.38,3.58.52.29.03.58.07.86.1,1.14.12,2.25.21,3.33.26.07,0,.13,0,.2,0,1.02.04,2.02.05,3,.03.27,0,.54,0,.8-.02,1.02-.04,2.04-.09,3.04-.19.06,0,.13-.01.19-.02.95-.1,1.9-.22,2.84-.37.25-.04.51-.08.76-.12.99-.17,1.97-.35,2.97-.57.03,0,.07-.02.1-.02.98-.22,1.97-.46,2.97-.72.26-.07.53-.14.79-.21,1.01-.27,2.03-.56,3.08-.87,0,0,.02,0,.02,0,3.32-.99,6.36-2.89,9.29-4.73.97-.61,1.97-1.23,2.96-1.81.36.4.74.79,1.12,1.18.75.78,1.52,1.58,2.2,2.42-.7.49-1.84,1.3-2.98,2.1-1.48,1.04-2.96,2.09-3.48,2.45-.19.13-.32.22-.41.29,0,0,0,0,0,0l-.08.05h0c-.08.08-.1.11-.09.15-.35.38-.56.69-.76,1.13-.22.5-.28.88.03,1.45.07.13.16.25.27.36.32.33.78.54,1.28.59.26.03.54,0,.81-.03.09,0,.19-.01.28-.03.29-.05.57-.11.82-.16,0,0,.01,0,.01,0,.11-.03.22-.05.33-.07.17-.03.33-.07.51-.11l.08-.02s.04,0,.07,0c.08,0,.18-.01.3-.05,1.58-.44,3.17-1.01,4.71-1.56.95-.34,1.93-.69,2.91-1.01h0c.04.09.07.18.1.29.04.14.11.44.13.56,0,.05.01.07.01.09,0,.03,0,.04.02.09,0,.04.03.08.09.11.15.24.18.51.22.81.02.14.03.29.06.44.11.55.54,1.88.56,1.94.05.13.07.21.1.26l.17.42c.2.49.41,1,.57,1.46.14.41.22.75.3,1.1.03.15.07.3.11.47v.06c.03.07.05.16.07.21.16.42.27.66.53,1.04.14.21.33.41.53.6.2.19.42.36.65.49.04.03.07.05.11.06.02,0,.05,0,.07,0,.02,0,.04,0,.07,0v-.08s.01.08.01.08h.15s0-.02,0-.02c.82-.18,1.18-.8,1.48-1.43.09-.2.29-.69.34-.94.06-.31.14-.85.21-1.3.04-.28.08-.52.1-.64.24-1.4.36-2.51.51-3.79l.07-.62ZM130.85,112.12h.02c.11.01.2-.02.25-.06h0c.8,5.05.85,8.77.16,12.4-.1.52-.25.96-.43,1.46l-.04.11s-.02.04-.02.05c-.03.08-.18.44-.23.55-.03.06-.04.09-.05.12-.01.03-.02.05-.04.1-.04.09-.2.34-.27.45-.04.06-.06.1-.09.15-.84,1.24-1.71,2.18-2.86,3.39-1.17,1.22-2.49,2.36-3.73,3.21l-.04.05c-.47.77-1.23,1.14-2.03,1.53l-.15.08c-.07.04-.1.09-.12.13-.47.24-.95.42-1.53.58,0,0-.01,0-.07.01-.02,0-.03.01-.05.02-.02,0-.03.01-.06.02h-.03s-.06,0-.09.01l-.14.02c-.09.01-.22.04-.36.05-.04,0-.08,0-.13.02-.15.02-.31.03-.46.03,0,0-.02,0-.02,0h0c-.11,0-.22,0-.3-.03-.04-.06-.1-.07-.13-.07,0,0-.02,0-.02,0,0,0,0,0-.01,0-.39.04-.8.07-1.18.07-.06,0-.11,0-.17,0h0s-.07.01-.09.02c-.34,0-.69,0-1.03,0h0c-.13,0-.25,0-.38,0-.38,0-.77,0-1.15-.03h-.01s-.01-.02-.02-.03c-.01-.02-.06-.05-.11-.06-.02,0-.05-.02-.08,0h0c-.2-.84.53-2.58,1.06-3.86.3-.7.55-1.31.61-1.66.33-1.86.34-3.48.35-5.04.01-1.33.02-2.59.21-4,.05,0,.1.01.16.02.12.02.25.03.38.04.09,0,.18,0,.28,0h0c.33-.06.67-.11.95-.12.03,0,.06,0,.09,0,.07,0,.13,0,.18,0,0,0,.01,0,.02,0,.05,0,.1,0,.16,0,.08,0,.17,0,.29-.03.17-.03.37-.09.58-.16.2-.06.4-.13.57-.16.07-.01.11-.06.15-.1.52-.28,1.08-.5,1.62-.72.37-.15.75-.3,1.11-.47.19-.09.37-.19.55-.3.15-.09.29-.17.44-.25.34-.17.65-.42.93-.64l.03-.03c.07-.06.09-.13.1-.18,0-.02.02-.05.02-.06.3-.26.58-.52.87-.79.32-.29.65-.6.98-.88l.06-.05h0s.04,0,.04,0l.02-.1h0c.12-.18.24-.32.38-.47.08-.08.16-.17.24-.27.12-.14.28-.37.44-.59.15-.21.31-.42.4-.53l.03-.04s.02-.02.02-.03l.09-.12-.04-.03c.17-.35.39-.67.62-1,.07-.1.13-.19.19-.29,0,0,.02-.02.04-.03.03-.02.06-.04.09-.08.26-.35.51-.59.87-.82.04,0,.11,0,.19-.06.03-.02.06-.03.09-.04.08-.03.2-.08.31-.19.11-.11.38-.25.52-.25ZM124.13,99.16s.02-.04.03-.05l.04-.04s.02-.02.04-.03c.01,0,.03-.02.05-.02.05-.02.1-.04.16-.09.21-.18.4-.38.6-.61h0c.39.76.79,1.51,1.17,2.24,1.61,3.03,3.14,5.88,3.83,9.23v.02c-.08.07-.16.15-.21.19-.04.04-.05.05-.06.05-.04.03-.1.06-.16.09l-.1.05c-.1.05-.15.13-.19.2-.04,0-.08.03-.11.08-.01.01-.02.04-.03.06,0,.02-.02.05-.03.06-.27.22-.55.42-.83.62-.67.49-1.37.99-1.93,1.65l-.1.11c-.34.4-.69.8-.93,1.27l-.06.11c-.11.22-.21.41-.38.58l-.02.02-.05-.02-.03.12s0,0,0,0c-.22.29-.49.55-.74.79-.01,0-.04.02-.06.03-.04.01-.08.03-.11.06-.05.04-.1.1-.13.14-.18.27-.59.62-.7.63h-.04s0,0,0,0c-.01,0-.03,0-.05,0l-.15.02v.08s0,0-.01,0c-.04,0-.09.02-.13.04-.05.03-.08.07-.1.1-.01.02-.03.03-.04.04-.2.15-.44.28-.66.4l-.19.1c-.06.03-.09.08-.12.12,0,.01-.02.03-.04.04-.05.02-.08.04-.11.08-.02.02-.05.05-.07.09-.02.03-.04.07-.07.08-.03.02-.1.05-.16.08-.08.04-.16.07-.19.1-.05.03-.08.06-.12.1-.19.13-.47.21-.69.27l-.1.03c-.14.04-.31.11-.45.16-.11.04-.21.08-.29.1h0s-.05.01-.06.01c-.01,0-.02,0-.03,0-.03-.01-.06-.03-.14-.03-.09,0-.16.03-.24.07h-.06c-.37.11-.69.19-1,.26l-.35.07s-.07.02-.06.02l-.25.05c-.28.06-.56.12-.86.18h-.02s0,0,0,0c-.05,0-.07,0-.11,0h0s-.04,0-.05,0c0,0,0,0,0,0-.01,0-.02,0-.03-.02-.06-.08-.13-.09-.16-.09-.06,0-.11.03-.14.06h0c-.24-.7-.23-2.02-.22-3.19,0-.73,0-1.41-.05-1.86-.42-3.31-1.35-7.07-2.55-10.31-.3-.79-.54-1.15-.78-1.49-.18-.26-.35-.51-.54-.95.94-.05,1.88-.05,2.8-.05,3.43,0,6.67-.02,9.57-2.19.06-.05.1-.11.13-.16ZM114.35,88.38l.15-.11c1.06.32,2.53,1.45,3.32,2.11,1.05.86,2.18,1.89,3,2.72.27.28.51.54.71.76,1.17,1.36,1.27,1.92.55,3.35-.7,1.4-1.85,1.64-3.41,1.83-1.16.14-2.41.17-3.61.21-1.39.04-2.83.08-4.2.27-.42-.36-.65-1.18-.84-1.85-.11-.38-.21-.73-.33-.97-.68-1.36-1.46-2.59-2.22-3.78-.5-.78-1.01-1.59-1.49-2.44,0,0,0,0,0,0,.39.06.78.11,1.18.15.12.01.24.01.37.02.4.03.8.04,1.18,0h0c.73-.09,1.36-.27,2.03-.47.24-.07.48-.14.73-.21.47-.13.79-.25,1.31-.51.46-.23,1.07-.7,1.56-1.07ZM109.08,85.88c.96.35,1.95.72,2.94,1.06.04.15,0,.17-.15.26-.03.02-.06.04-.1.05-.3.17-.6.31-.91.43-.08.03-.16.06-.24.09-.27.09-.54.17-.81.23-.03,0-.07.02-.1.03-.31.06-.62.1-.93.13-.08,0-.17.01-.25.02-.26.02-.53.03-.79.03-.04,0-.07,0-.11,0-.02,0-.03,0-.05,0-.51,0-1.03-.02-1.56-.05-.52-.02-1.05-.05-1.59-.05-.17-.1-.32-.22-.47-.36-.44-.41-.79-.97-1.13-1.52-.28-.45-.54-.87-.85-1.22-.41-.46-.87-.8-1.32-1.13-.35-.26-.68-.5-.99-.8,3.27.56,6.39,1.7,9.4,2.81ZM95.93,84.5s0-.01,0-.02v-.05q0-.06.03-.21c.02-.12.14-.4.25-.62.41.41.88.81,1.37,1.24.65.57,1.32,1.15,1.9,1.77.57.62,1.06,1.27,1.34,1.97-.44.18-.87.37-1.28.55-1.18.53-2.31,1.02-3.57,1.22h0c.06-.98.01-1.98-.03-2.95-.03-.61-.06-1.25-.06-1.86,0-.19.03-.41.06-.59.01-.09.02-.16.03-.23.01-.13,0-.19-.03-.24ZM95.97,93.22c.11-.05.2-.1.3-.16.24-.13.47-.25.77-.36.12-.05.26-.1.4-.15.37-.14.79-.3,1.14-.4.2-.06.39-.12.58-.17.28-.09.55-.17.83-.25l.31-.08c.61-.16,1.24-.32,1.85-.58.03-.01.07-.01.11-.02.03,0,.07,0,.11-.01,1.45,1.49,2.36,3.19,3.31,4.99.17.31.33.63.51.95.03.05.08.09.15.15.06.04.13.1.2.17.07.07.14.16.19.26.84,1.86.8,2.19.79,2.24t0,0s-.03.07-.06.09c0,0-.02,0-.04,0,0,0-.02,0-.03,0-.01,0-.03,0-.05,0-.02,0-.05,0-.08,0-.08,0-.16.01-.24.07-.35.25-.72.38-1.13.51-.16.06-.33.11-.5.17v-.03s-.15.02-.15.02c-.04,0-.21.07-.26.1-.04.03-.07.07-.08.1-.34.25-.74.37-1.15.49-.09.03-.19.05-.28.09-.1.03-.19.08-.27.13,0,0-.01,0-.01,0l-.03-.02-.1.04c-.08.04-.26.11-.39.18-.34.19-.68.39-1.01.59-.35.21-.72.43-1.1.63-.28.15-.56.31-.84.46-1.12.62-2.27,1.26-3.52,1.63-.03.01-.06.03-.09.04h-.02s-.07,0-.07,0c-.03,0-.06,0-.11.03-.02,0-.06.02-.1.04,0,0-.02,0-.03.01l-.03-.02h-.05c.09-3.98.17-7.97.26-11.96ZM93.41,83.48c0,2.65,0,5.3,0,7.96-.31.01-.62.03-.94.05h-.02c-.63.04-1.29.07-1.93.07-.09,0-.18,0-.27,0h-.11c-.06,0-.12,0-.18,0-.11,0-.22.01-.33.05,0,0,0,0,0,0-.02-.01-.05-.03-.09-.03l-.04-.02c-.17-.06-.43-.12-.66-.16h.01s-.27-.04-.27-.04c-.03,0-.06,0-.08-.01h-.02s-.01,0-.02,0h-.08s0-.01,0-.01c-.01,0-.02-.01-.03-.02-.03-.02-.06-.04-.13-.06-.06-.02-.15-.03-.24-.04-.06,0-.13-.01-.16-.02-.02,0-.03,0-.04,0-.08-.09-.22-.24-.41-.26-.16-.01-.28-.04-.42-.09-.09-.04-.21-.11-.32-.18,0,0-.01,0-.02-.01,1.81-1.91,3.61-3.81,5.43-5.72l1.37-1.44ZM73.66,111.42c-2.37-1.31-4.73-2.62-7.1-3.94.62-.58,1.21-1.21,1.79-1.82.76-.8,1.54-1.63,2.39-2.36l.07-.06c.15-.13.34-.29.43-.35,0,0,.01,0,.02-.01.01,0,.03,0,.05,0,.51.03.8.08,1.39.21.33.07.6.14.91.23.24.06.51.13.83.21.67.16,1.86.48,2.8.73h0c-.7,2.41-1.46,5.2-1.9,8.08l-1.7-.94ZM74.35,116.31v.91c0,.65-.01,1.31-.01,1.96-.04,0-.08.01-.12.01-.01,0-.03,0-.05-.01-.13,0-.28-.04-.42-.1-.03-.01-.05-.02-.08-.04-.15-.06-.29-.13-.43-.2l-.1-.05c-.32-.17-.71-.38-1.08-.59l-.34-.19c-.45-.25-1.2-.65-1.6-.85-.11-.06-.24-.12-.37-.19-.35-.19-.69-.37-.9-.41-.46-.1-.94-.14-1.4-.17-.93-.07-1.78-.14-2.29-.67-.17-.18-.31-.41-.4-.71,2.26.31,4.51.62,6.76.92l2.82.38ZM79.96,115.43s0-.04-.01-.05c-.01-.07-.03-.16-.1-.23-.73-.73-1.66-1.11-2.56-1.47l-.15-.06c.31-1.07.61-2.15.92-3.23.49-1.71.99-3.49,1.51-5.21,0,0,.02,0,.03,0,.7,0,1.7.68,2.52,1.23.47.32.88.59,1.18.71.47.18.92.33,1.37.46.15.04.29.07.44.11.29.08.58.15.87.21.17.03.33.05.5.08.26.04.51.08.77.11.17.02.34.02.51.04.24.01.49.03.73.03.12,0,.23,0,.35,0,.65,0,1.3-.05,1.97-.14.07,0,.14-.02.21-.03.7-.1,1.41-.22,2.16-.38-.07,2.24-.14,4.49-.21,6.74-.05,1.63-.1,3.25-.15,4.87-.03,0-.05.01-.08.02-.1.02-.22.05-.32.14l-.04.04c-.12.1-.32.27-.43.33-.05.02-.1.05-.13.1,0,0-.02.01-.03.02-.15.08-.61.35-.76.43-.1.06-.15.09-.2.13l-.08.06c-.39.24-.81.47-1.33.73-.1.05-.23.09-.35.13-.12.04-.23.07-.33.12-.08.04-.14.08-.19.12-.06.05-.1.07-.19.09-.21.04-.7.15-.85.19-.11.03-.16.06-.19.1-.47.16-.92.19-1.4.23-.18.01-.37.03-.55.05-.02,0-.04,0-.05,0-.06,0-.1,0-.17-.02h0s-.1-.02-.17-.03c-.26-.03-.52-.05-.79-.05-.3,0-.6.01-.9.03h-.31s-.02.01-.03.01c-.06,0-.08,0-.13-.03h0s-.12-.05-.23-.07c-.12-.02-.27-.03-.44-.03-.17,0-.35-.01-.48-.04h0c-.08-.05-.15-.04-.2-.03-.01,0-.03,0-.05,0-.04,0-.1-.04-.15-.07-.04-.03-.09-.05-.13-.07-.09-.04-.19-.05-.29-.06-.05,0-.09,0-.13-.02-.07-.01-.19-.03-.29-.04-.02,0-.03,0-.05,0l-.22-.03s-.08,0-.14-.01c-.03,0-.07-.02-.12-.05-.04-.02-.08-.04-.13-.06-.12-.05-.27-.07-.38-.09-.14-.02-.27-.04-.41-.06-.24-.03-.48-.07-.72-.11-.04-.02-.08-.02-.1-.02-.04,0-.08-.01-.13-.02-.1-.02-.24-.04-.38-.05-.07,0-.15-.06-.23-.14-.08-.08-.15-.17-.18-.25-.04-.09-.09-.14-.15-.17-.06-.03-.12-.04-.16-.05-.02,0-.04,0-.05,0,0-.85,0-1.7,0-2.55v-1.31h0c.45.01.96.02,1.46,0h0s.05,0,.07,0c.43-.08.89-.19,1.28-.47.11-.08.21-.21.25-.27.03-.03.04-.05.06-.1.01-.04.02-.07,0-.14,0-.13-.02-.22-.04-.29ZM76.84,123.23s.01,0,.02,0c.63.16,1.3.32,2,.47.22.05.47.09.7.13.51.1,1.03.19,1.56.28.29.04.59.08.89.12.5.06,1.01.11,1.53.15.32.02.63.04.96.04.75.02,1.5.03,2.25-.03h0c1.54-.13,2.79-.65,4.11-1.2.59-.24,1.19-.5,1.83-.71h0c.13,2.61.26,5.21.39,7.83.1,1.99.2,3.97.3,5.96-.06.02-.12.04-.17.09-.02.02-.04.04-.05.06-.01.01-.02.03-.02.03-.72.22-1.34.49-1.86.82-.06.04-.09.09-.12.13-.61.08-1.21.24-1.77.46-.08.03-.12.09-.15.14-.47.07-.93.21-1.37.34-.18.06-.37.11-.54.16-.62.17-1.14.25-1.74.26-.29,0-.57.02-.86.03-.36.02-.71.03-1.07.03-.05,0-.09,0-.14,0-.23,0-.47,0-.72-.02h0c-.15,0-.29-.01-.43-.01-.41,0-.8,0-1.21-.23-.33-.18-.56-.33-.75-.51-.31-.29-.49-.68-.81-1.51-.47-1.23-.88-2.33-1.37-4.39-.08-.32-.18-.71-.3-1.14-.57-2.16-1.51-5.74-1.09-7.79ZM93.28,99.82c-.05,1.98-.09,3.96-.14,5.94,0,0,0,0-.01,0-.48.14-.96.24-1.43.3-.16.02-.33.02-.49.04-.25.02-.5.06-.76.06-.06,0-.13-.02-.19-.02-.38,0-.78-.06-1.18-.11-.19-.03-.37-.03-.56-.07-.6-.11-1.22-.26-1.88-.48-.1-.03-.21-.06-.32-.09-.12-.03-.23-.06-.32-.1l-.02-.07-.07-.03c-.37-.17-.73-.33-1.08-.49-.09-.04-.19-.06-.29-.08-.02,0-.03,0-.05-.01,0-.05-.04-.09-.07-.12-.05-.04-.12-.07-.22-.12l-.07-.03s-.06-.03-.09-.04c-.01-.02-.03-.03-.05-.04-.07-.04-.22-.13-.33-.18-.08-.04-.26-.1-.38-.13v-.06s-.14-.03-.14-.03c-.2-.04-.5-.13-.68-.22h0c.02-.05.06-.16-.03-.26-.07-.08-.19-.15-.3-.21l-.07-.04c-.08-.05-.19-.07-.27-.09-.01,0-.02,0-.04,0,0-.03-.01-.07-.04-.1-.04-.05-.07-.06-.11-.09-.05-.03-.1-.04-.14-.05-.01,0-.04,0-.03,0,0,0,0,0,0,0h0c-.03-.09-.07-.16-.11-.21-.13-.15-.32-.17-.46-.17-.1,0-.18-.01-.24-.06-.06-.05-.09-.13-.1-.31-.25-2.58,2.57-7.62,4.41-9.2,0,0,.01-.01.02-.02.09-.07.16-.13.22-.16.03-.01.04-.01.07-.02.04-.01.08-.03.11-.03,0,0,0,0,0,0,0,0,.01,0,.02,0,.08,0,.14.05.21.1.1.08.23.18.42.19.24.01.29.03.37.07.06.03.13.06.26.09.19.05.43.16.67.26.16.07.31.13.44.18.32.12.58.2.9.26l.34.07c.58.12,1.19.25,1.79.26h0c.55.01,1.07-.01,1.61-.04h.01l.44-.02c.16,0,.31-.04.46-.08.04,0,.08-.02.11-.03h0c-.05,1.96-.09,3.92-.14,5.88ZM79.39,87.03l.06-.05c3.42-2.48,7.28-3.55,11.38-4.69l.45-.13c-.5.46-1,.91-1.49,1.35-1.99,1.78-3.88,3.46-5.22,5.83-.38-.19-.75-.39-1.11-.58-1.3-.7-2.53-1.36-4.15-1.36-.08,0-.16,0-.24,0h0c0-.17.09-.23.3-.38ZM66.49,99.25c.34-.56.66-1.09,1.23-1.87,1.89-2.57,4.56-5.39,6.97-7.37l.12-.1c.31-.26.47-.39.83-.52.07-.03.15-.04.21-.05,0,0,0,.02.01.02l.06.07h.08s.13-.01.21-.03c.01,0,.02,0,.03,0l.09-.02c.1-.02.3-.08.42-.12.02,0,.06-.02.1-.05l.17-.04c.06-.01.13-.03.19-.04l.05.05.08-.02c.1-.01.18-.02.26-.02s.16,0,.26.01c.08,0,.16.01.26.02h.01c.09,0,.19,0,.31,0h0s.09,0,.14,0c.22,0,.47,0,.66.06v.03s.12,0,.12,0c.38.02.8.07,1.28.22,0,.07.02.17.12.22.1.05.23.1.37.15.13.05.26.1.38.15l.07.03c.52.23,1.06.47,1.56.77,0,.02.02.04.04.07.03.04.06.06.09.07.02.01.04.03.06.03.02.07-.05.35-.08.41-.03.05-.05.08-.05.11,0,.02-.01.07,0,.11l-4.72,9.69-5.03-.48h0c.15-.39.45-.69.77-1.01.35-.34.71-.7.86-1.2.06-.18,0-.31-.05-.39-.18-.27-.65-.31-1.03-.35-.13-.01-.26-.03-.33-.05h-.04s-2.07.62-2.07.62c-1.88.58-3.75,1.15-5.64,1.74.22-.35.41-.65.58-.95ZM57.53,116.25l-.07-.08-3.19,1.17-5.05,1.86c1.29-1.47,1.29-1.25,2.58-2.72l2.91-2.55,1.55-1.36.1-.12-.12-.1c-2.4-2-4.8-4-7.19-6l-1.97-1.65c1.42.33,2.97.51,4.52.7,1.55.18,3.09.37,4.52.7h.06s.05-.02.05-.02c.11-.08.23-.15.34-.23.13-.09.26-.18.4-.27l.03-.02.03-.02.58-17.99s0,0,0,0c.02-.01.03-.02.04-.02,0,0,0,0,0,0,0,0,0,0,.01,0,.01,0,.02.02.03.04,0,.01.01.03.02.04.01.03.03.08.04.13,0,.02.01.05.02.08.02.09.05.2.08.35,0,0,0,.01,0,.02,0,.03.02.05.03.07.02.04.04.08.04.12.16.79.55,2.61.87,4.18.13.63.25,1.21.34,1.66.05.23.08.42.11.58.19,1.02.39,2.07.6,3.11.3,1.54.63,3.09,1.03,4.63,0,0,.08.42.2.86.06.22.13.44.19.62.07.18.15.32.22.37,0,0,.07,0,.12,0,.03,0,.06,0,.11-.01.06,0,.13-.02.21-.03.06,0,.12-.02.19-.03.09-.02.2-.04.31-.06.08-.02.16-.03.25-.05.11-.02.24-.05.36-.08.1-.02.2-.04.3-.07.13-.03.26-.06.4-.1.1-.03.21-.05.32-.08.14-.04.27-.08.41-.12.1-.03.21-.06.31-.09.14-.04.28-.09.41-.13.09-.03.18-.06.27-.09.19-.07.37-.14.54-.21.01,0,.03-.01.05-.02.73-.33,1.43-.63,2.1-.81-.04.08-.11.17-.16.26-.51.85-1.54,1.83-2.41,2.65-.54.5-1,.93-1.23,1.23-.08.1-.15.18-.21.26-.1.11-.18.21-.26.28-.12.13-.2.23-.26.34-.05.1-.08.22-.06.37.01.1.05.23.1.38.24.72,1.73,1.69,2.93,2.37,1.15.65,2.28,1.13,3.37,1.59,1.13.47,2.21.93,3.28,1.55-2.39-.38-4.77-.75-7.15-1.12l-3.85-.6-.04.02s-.03.01-.05.02c-.04.01-.09.03-.14.05-.04.02-.17.06-.18.22-.01.23,0,.48,0,.76.11,1.95.85,4.92,1.01,5.57.35,1.39.69,2.33,1.01,3.25.2.57.41,1.16.62,1.85-1.41-1.53-2.83-3.04-4.21-4.51-.86-.92-1.72-1.83-2.58-2.75-.06-.06-.12-.13-.18-.19h0ZM61.28,131.03c-.09,0-.17,0-.26,0h0c-.09,0-.17,0-.25,0-.09,0-.17,0-.25-.02h0c-1.18-3.5-2.28-6.95-2.9-10.54.83.85,1.63,1.74,2.42,2.61,1.18,1.3,2.4,2.64,3.7,3.87.28.26.59.45.89.64.24.15.5.3.73.49.13.11.23.26.33.43.1.16.21.33.36.47.27.25.66.43,1.01.59l.21.1c.07.04.16.07.26.08.02,0,.04.01.07,0,.64-.05,1.1-.3,1.41-.76.13-.18.13-.41.12-.63v-.11c0-.11-.01-.21-.06-.37-.93-3.29-2.12-6.53-3.28-9.68,2.49.27,4.51,1.38,6.64,2.56.52.29,1.06.58,1.61.87-.15,5.55,1.45,10.43,3.15,15.6-.32-.02-1.4-.54-1.94-.79l-.35-.17c-.49-.23-1.19-.52-2-.86-1.38-.58-3.09-1.3-4.23-1.91-.9-.48-2.22-1.05-3.91-1.69-.74-.28-1.6-.46-2.43-.63-.23-.05-.46-.1-.68-.14-.12-.03-.25-.04-.37-.04ZM73.13,146.37c-.11-.03-.22-.05-.33-.07-.26-.04-.5-.04-.73-.04-.32,0-.62.05-.91.15,0,0,0,0,0,0h0l.02-.03-.76-.83c-2.02-2.2-3.77-4.1-5.45-6.75-.62-.98-1.42-2.41-2.12-3.67-.22-.39-.42-.76-.62-1.12,1.09.48,2.23.84,3.34,1.18.96.3,1.96.61,2.92,1,1.35.55,2.66,1.23,3.93,1.88,2.11,1.09,4.29,2.21,6.68,2.79.65,1.31,1.47,2.53,2.26,3.71.71,1.06,1.44,2.15,2.05,3.3-.15-.02-.31-.06-.46-.09-.25-.05-.5-.11-.73-.11-.05,0-.09,0-.13,0,0,0,0,0,0,0-.08,0-.16.01-.24.01,0,0-.02,0-.03,0-.15,0-.3-.02-.43-.04-.03,0-.05-.01-.08-.02-.13-.03-.24-.07-.3-.12l-.02-.02s-.05-.05-.08-.07l-.12-.07-.03.04c-.24-.08-.48-.08-.71-.09-.18,0-.36,0-.53-.05l-.12-.02v.02c-.39-.03-.77-.11-1.19-.24l-.12-.03h0s-.21-.02-.21-.02c-1.15-.19-2.33-.39-3.51-.47-.13,0-.26-.01-.39-.01-.15,0-.31,0-.45-.02-.14-.01-.26-.04-.38-.08ZM73.93,148.51c.42.07.83.13,1.23.19,1.49.23,2.9.44,4.61.83.45.1.93.18,1.43.26,1.19.19,2.54.41,3.75,1.02.27.14.64.46,1.02.85.65.66,1.35,1.51,1.77,2.02l.11.13c.07.08.13.15.18.2.12.13.17.18.18.32-6.03-.39-10.47-2.2-14.3-5.83ZM89.91,150.11c-.06-.01-.11-.02-.17-.03-.22-.05-.44-.12-.67-.2-.05-.02-.1-.05-.15-.07-.17-.07-.35-.15-.52-.25-.07-.04-.14-.08-.21-.13-.16-.1-.32-.21-.48-.33-.07-.05-.13-.1-.2-.16-.22-.19-.45-.39-.67-.63-1.65-1.76-3.86-5.17-4.49-6.18-.22-.34-.26-.56-.27-.87,0,0,.01,0,.02,0,.42.02.83.03,1.24.03.75,0,1.49-.05,2.23-.13.12-.01.24-.02.37-.04.72-.09,1.44-.22,2.16-.39.13-.03.25-.06.38-.1.73-.19,1.47-.41,2.21-.67.1-.04.2-.08.3-.11.79-.29,1.58-.62,2.4-1.01h0c.09.16.19.31.28.47l.16,3.58c.11,2.42.22,4.84.34,7.28-.43.01-.84.03-1.23.05-.46.02-.89.04-1.31.05-.05,0-.11,0-.16,0-.03,0-.06,0-.08,0-.08,0-.15,0-.22,0-.17,0-.33-.01-.49-.03-.08,0-.16-.01-.24-.02-.17-.02-.35-.05-.52-.08ZM94.01,154.36c-1.13,0-2-.43-2.8-1.14-.27-.24-.53-.51-.78-.8h3.74v1.94c-.05,0-.1,0-.16,0ZM95.25,118.58h0s.01-.07.02-.11c-.05-.04-.09-.08-.12-.14-.03-.07-.05-.14-.05-.22,0-.07,0-.14,0-.21,0-.08.01-.16.01-.24,0-.22,0-.45,0-.67,0-.22,0-.45,0-.67,0-.22-.01-.45-.02-.67,0-.22-.02-.45-.03-.67,0-.22-.02-.44-.02-.67,0-.22,0-.44-.01-.67,0-.22,0-.44.01-.66,0-.22.02-.44.04-.65.01-.22.03-.44.05-.66.02-.22.04-.44.06-.65.02-.22.04-.43.06-.65.02-.22.04-.43.06-.65.02-.22.04-.44.06-.65.02-.22.03-.44.05-.65.01-.22.02-.44.03-.66,0-.09,0-.19,0-.28l-.05-.15h0s0-.05,0-.05c0-.03.01-.09.02-.11v-.05s.02-.03.03-.05c0-.02.01-.04.01-.05h0s.02-.06.02-.06l.03-.07h.1s.04-.01.04-.01h0c.16.02.32.02.48,0,.05,0,.1,0,.15-.02.17-.03.33-.08.5-.17t0,0h0c.06.02.12,0,.18-.02.02,0,.04,0,.05,0,.05-.02.1-.04.12-.05,0,0,0,0,0,0,.02-.01.06-.03.1-.05.12-.05.2-.09.25-.12.03-.03.06-.06.08-.09.41-.17.79-.4,1.15-.62.16-.1.32-.2.48-.29.18-.1.36-.2.53-.3.36-.2.7-.39,1.05-.6.92-.56,2-1.06,3.3-1.54.26-.09.55-.17.84-.23.33-.08.64-.15.9-.26.44-.19.77-.31,1.15-.44.36-.12.64-.21.96-.29l.12-.04s0,0,0,0c.13-.03.22-.06.31-.06,0,0,.03,0,.04,0,.06,0,.12.01.19.03l.23.38c.98,1.62,1.76,2.9,2.32,4.93.75,2.71,1.46,5.77,2.05,8.86.17.86.48,3.07.34,3.49-.03.01-.07.05-.1.11-.09.17-.25.28-.32.29h-.03l-.07-.02s-.03,0-.05,0h-.17s-.06,0-.07,0l-.1-.07-.05.02c-.06.01-.12.03-.17.04h0c-.1.03-.19.05-.27.05-.02,0-.04,0-.06,0-.15-.02-.46-.1-.64-.14l-.13-.03s-.01,0-.02,0v-.02s-.14-.02-.14-.02c-.04,0-.08-.02-.12-.03-.08-.03-.15-.05-.22-.05-.05,0-.1.02-.13.05-.02,0-.04-.01-.06-.02-.08-.03-.2-.07-.33-.05-.04,0-.08.01-.13.02h0c-.07.01-.13.03-.2.03-.04,0-.09,0-.14-.02-.28-.09-.67-.21-.89-.25-.16-.03-.27-.03-.4-.03h0s-.06,0-.08,0-.06,0-.09,0h0c-.33-.02-.66-.06-.97-.1-.18-.02-.36-.05-.54-.07-.59-.06-1.18-.1-1.76-.15-.45-.03-.91-.06-1.37-.11l-.08-.04c-.07-.02-.16,0-.19,0-.02,0-.04,0-.07.02-.03,0-.07.02-.1.02h0c-.53,0-1.11-.03-1.68-.04-.75-.02-1.5-.04-2.17-.05-.26,0-.51,0-.76-.02-.35,0-.69-.01-1.03,0-.1,0-.21,0-.32.01-.38.02-.76.06-1.16.16h0c-.07.02-.13.03-.19.03-.04,0-.08-.02-.11-.03-.03,0-.07-.01-.09-.02-.08-.04-.17-.09-.28-.17-.08-.06-.17-.06-.23-.04ZM95.47,121.41s.11-.02.16-.07c.06-.05.15-.09.18-.09h0s.05,0,.09,0h.05s0,0,0,0c.05,0,.13.01.19,0,.91-.18,1.89-.32,3.19-.46.06,0,.11-.04.17-.08h.01c.7-.07,1.4-.09,2.11-.09.05,0,.1,0,.14,0,.35,0,.7,0,1.05,0,.27,0,.55,0,.83,0,.02,0,.04,0,.07.03.04.02.09.05.16.06.34.04.69.06,1.02.07.27.02.55.03.82.06.04,0,.08,0,.14-.02h0c.39.02.79.08,1.17.13.17.03.34.05.51.07.08,0,.17.02.25.03.22.04.45.07.67.07.1,0,.16-.03.21-.07,0,0,.02,0,.03,0,.02-.01.04-.03.05-.03h0c1,.09,1.95.27,2.96.47l.31.06h0c.11.02.17-.02.22-.05h0s.03-.02.04-.02c.01,0,.02,0,.04.02.19.1.8.31,1.02.33h0s.07,0,.06,0c.03.02.06.04.13.05.03,0,.05,0,.07.01.03,0,.07.01.1.02-.04.95,0,1.72.04,2.45.06,1.13.11,2.2-.09,3.86-.21,1.76-1.08,6.13-2.34,7.65-.03.01-.05.03-.11.09-.06.07-.21.22-.34.22h-.03c-.48,0-.97-.12-1.42-.24-.52-.14-1.05-.22-1.5-.28-.72-.1-1.44-.26-2.14-.42l-.36-.08c-.32-.07-.65-.09-.96-.11-.26-.02-.51-.03-.75-.07-.01,0-.02,0-.03,0-.05,0-.08.02-.11.03h0c-.1,0-.2,0-.3,0-.06,0-.12-.01-.18-.01-.31-.01-.61-.03-.91-.07-.4-.04-.81-.08-1.22-.08-.68.02-1.39.07-2.06.12-.23.02-.47.04-.7.05-.39.03-.77.11-1.15.2-.35.08-.71.17-1.06.19-.04,0-.06.01-.09.02,0,0,0-.01-.01-.02-.01-.01-.03-.03-.04-.05,0,0-.02-.02-.03-.03-.12-4.65-.23-9.3-.34-13.94ZM101.76,150.33c-.1.12-.19.24-.29.37-.49.66-1.07,1.25-1.59,1.77l-.09.09c-.08.08-.17.17-.21.22-.07.09-.13.22-.19.36-.06.13-.16.35-.22.38,0,0-.02,0-.03.01-.2.09-.41.16-.63.21-.08.02-.16.02-.25.03-.14.02-.28.05-.42.05,0,0-.02,0-.02,0-.16,0-.32-.03-.47-.07-.08-.01-.16-.01-.23-.04-.22-.07-.42-.17-.59-.32.07-.11.05-.29.02-.38-.01-.05-.04-.1-.06-.13.01-.33.13-.82.28-1.01.08-.1.15-.11.25-.12.06,0,.13,0,.2-.04.06-.03.08-.03.1-.04.02,0,.04-.01.1-.04.09-.04.2-.09.28-.12.03-.01.07-.02.11-.03.06-.02.12-.04.15-.05.04-.02.07-.06.09-.08.82-.43,1.59-.67,2.48-.93l.4-.12c.34-.1.79-.28,1.21-.45-.11.16-.24.32-.37.48ZM101.81,147.41c-1.75.72-3.56,1.46-5.38,2.1-.02-1.25-.17-3.03-.32-4.76-.2-2.31-.4-4.7-.31-5.87.12-1.53,1.46-1.56,2.44-1.59.29,0,.54-.02.72-.06.99-.24,1.93-.33,2.86-.33,1.84,0,3.59.38,5.41.77.9.19,1.82.4,2.78.55h0c-.04.21-.02.29,0,.35-.01.06-.19.35-.28.5-1.21,2.02-3.28,5.12-5.11,7.22-.95.37-1.88.76-2.82,1.14ZM113.52,148.42c-.06.03-.13.06-.19.1-1.74.99-3.85,2-5.64,2.7-1.69.66-2.96,1.07-4.62,1.24.59-.8,1.17-1.6,1.75-2.4.39-.54.79-1.08,1.18-1.62,0,0,.01,0,.02,0,.88-.12,1.71-.21,2.51-.28.25-.02.48-.03.72-.05.56-.03,1.1-.06,1.63-.07.13,0,.28-.02.41-.02.1,0,.19.01.29.01.8,0,1.58.04,2.34.11h0c-.09.12-.23.19-.39.27ZM117.76,145.57l-.06.05c-.38.32-1.07.91-1.45,1,0,0,0,0,0,0-.08.02-.15.03-.2.03-.01,0-.02,0-.03,0-.08,0-.15-.02-.22-.05-.09-.03-.19-.07-.34-.07-.34-.01-.64-.09-.97-.18-.29-.08-.59-.15-.92-.18-.37-.03-.73-.04-1.09-.04-.09,0-.17,0-.26,0h-.21s-.03,0-.04,0c-.44,0-.9,0-1.35-.06-.12-.01-.22-.04-.32-.06-.15-.04-.31-.07-.52-.09-.32-.02-.67-.03-1.01-.03-.32,0-.63,0-.92.02-.04,0-.08,0-.12,0,.67-1.05,1.35-2.11,2.03-3.16.84-1.31,1.68-2.62,2.52-3.93h0c.61.03,1.19.03,1.76.02.29,0,.58-.02.86-.03.37-.01.73-.03,1.08-.06.28-.02.56-.05.83-.08.35-.04.68-.09,1.02-.15.27-.04.53-.09.79-.14.33-.07.66-.15.98-.23.25-.06.5-.13.75-.2.33-.1.65-.21.97-.32.24-.08.47-.16.71-.26.33-.13.65-.28.98-.43.22-.1.44-.19.65-.3.35-.18.7-.38,1.05-.58.18-.1.36-.2.55-.31.51-.31,1.03-.65,1.54-1.01.01,0,.03-.02.04-.03-.15.55-.66,1.43-.94,1.84-2.29,3.38-4.88,6.25-8.15,9.02ZM134.25,154.54l-.33-.07-.02.17c-.16,1.9-.47,3.8-.79,5.65l-.17-.56c-.58-1.86-1.18-3.79-1.79-5.68l-.03-.1h-.1c-.11-.01-.22-.01-.34-.01-1.83,0-3.63.74-5.38,1.45-1.26.52-2.57,1.05-3.86,1.29.97-.95,2.14-1.74,3.28-2.5,1.07-.72,2.18-1.47,3.13-2.36l.1-.09-.08-.11c-1.34-1.72-2.7-3.43-3.9-4.94,1.56.53,3.51,1.2,5.49,1.9l.15.05.04-.16c.73-2.8,1.45-5.54,2.14-8.25.18,1.12.36,2.25.53,3.38.23,1.5.48,3.06.74,4.58l.02.14h.14c1.7-.17,3.7-.54,5.64-.89,1.25-.23,2.43-.44,3.41-.58.07,0,.12-.01.17-.02-.17.13-.47.31-.61.39l-.17.1c-1.67,1.03-4.1,2.33-6.35,3.38l-.23.11.2.15c.62.46,1.29.89,2.01,1.34,1.15.72,2.32,1.47,3.25,2.37.31.3.6.62.85.96-2.44-.08-4.74-.57-7.16-1.1Z"/>
  <path class="st0" d="M43.45,44.52c-.64.51-1.92.74-4.02.74s-4.21-.12-6.16-.35c-1.95-.23-3.8-.52-5.5-.87-1.7-.35-3.25-.73-4.6-1.13-1.02-.3-1.92-.59-2.67-.87l2.13,19.72c2.24.58,4.82,1.06,7.69,1.42,2.98.37,6.86.56,11.52.56,4.18,0,7.87-.49,10.97-1.44,3.09-.95,5.71-2.29,7.81-3.97,2.09-1.67,3.66-3.67,4.69-5.95,1.03-2.28,1.55-4.77,1.55-7.39,0-2.36-.24-4.54-.72-6.48-.47-1.91-1.3-3.69-2.46-5.26-1.17-1.58-2.77-3.09-4.76-4.46-2-1.38-4.56-2.71-7.62-3.96-2.64-1.05-4.44-1.8-5.52-2.28-1.26-.56-1.9-1.26-1.9-2.08,0-.59.26-1.35,1.49-1.68.81-.21,1.91-.32,3.25-.32,2.08,0,4.59.22,7.47.65,2.61.39,5.07.99,7.33,1.79l-2.29-19.11c-1.91-.43-4-.84-6.21-1.22C52.61.2,49.88,0,46.83,0,42.36,0,38.47.47,35.25,1.4c-3.2.93-5.87,2.19-7.94,3.75-2.05,1.56-3.57,3.38-4.51,5.43-.95,2.05-1.42,4.25-1.42,6.53s.23,4.19.67,5.96c.44,1.74,1.24,3.38,2.38,4.87,1.14,1.5,2.67,2.95,4.55,4.3,1.9,1.36,4.32,2.76,7.21,4.18,1.67.8,3.03,1.5,4.07,2.08,1.04.58,1.88,1.1,2.5,1.53.66.47,1.09.89,1.33,1.3.24.41.36.87.36,1.34,0,.71-.33,1.34-.99,1.85Z"/>
  <path class="st0" d="M145.16,59.1c0-1.29.15-2.79.44-4.46l.06-.37h13.92l.06.38c.48,3.18.57,5.8.26,7.8h28.09c-.72-1.45-1.49-3.37-2.32-5.74-.95-2.72-1.91-5.55-2.88-8.48l-9.89-31.15c-.91-2.9-1.62-5.25-2.11-6.98-.49-1.71-.87-3.14-1.13-4.23-.26-1.09-.43-2-.52-2.71-.07-.58-.15-1.19-.25-1.85h-28.43c-.26,1.19-.53,2.31-.79,3.36-.29,1.17-.61,2.34-.95,3.46-.34,1.15-.7,2.33-1.08,3.53l-1.25,4.04-10.16,31.84c-.57,1.89-1.11,3.59-1.59,5.08l-1.33,4.09c-.39,1.21-.78,2.34-1.17,3.37-.3.8-.6,1.59-.92,2.37h24.14c-.13-1.11-.19-2.23-.19-3.34ZM150.51,30.44c.34-1.66.67-3.29.99-4.9.31-1.61.62-3.34.9-5.14l.44-2.79.44,2.79c.3,1.9.58,3.56.86,5.07.29,1.55.6,3.18.95,4.9l1.83,9.3h-8.4l2.01-9.23Z"/>
  <path class="st0" d="M217.27,16.73c1.61,3,3.24,6.09,4.82,9.17,1.58,3.08,2.99,5.99,4.18,8.67l2.88,6.55v.6c0,3.18-.06,6.65-.17,10.29-.11,3.48-.54,6.98-1.27,10.43h27.73c-.68-3.45-1.08-6.95-1.19-10.43-.11-3.61-.17-7.08-.17-10.29l.04-1.91,7.31-15.23c1.89-3.89,3.49-7.15,4.78-9.69,1.3-2.56,2.44-4.74,3.41-6.47.98-1.76,1.84-3.24,2.54-4.4.57-.93,1.15-1.85,1.74-2.73h-26.16c.04,1.61,0,3.1-.1,4.45-.12,1.48-.32,3-.61,4.52-.29,1.53-.68,3.18-1.17,4.9-.49,1.72-1.08,3.76-1.77,6.11l-.32,1.1-.5-1.03c-1.1-2.25-1.93-4.33-2.48-6.18-.55-1.85-.96-3.59-1.22-5.17-.26-1.59-.44-3.14-.52-4.61-.08-1.32-.19-2.7-.34-4.1h-30.08l3.8,6.7c1.59,2.8,3.21,5.74,4.82,8.74Z"/>
  <path class="st0" d="M271.23,32.34c0,4.74.83,9.08,2.46,12.91,1.63,3.83,3.93,7.15,6.82,9.87,2.9,2.73,6.42,4.87,10.48,6.36,4.06,1.49,8.56,2.25,13.35,2.25s9.36-.76,13.4-2.25c4.02-1.49,7.54-3.63,10.43-6.36,2.9-2.73,5.19-6.05,6.82-9.87,1.63-3.83,2.46-8.17,2.46-12.91s-.83-9.33-2.46-13.3c-1.63-3.97-3.93-7.4-6.82-10.22-2.9-2.81-6.41-5.01-10.43-6.53-4.03-1.52-8.54-2.29-13.4-2.29s-9.29.77-13.35,2.29c-4.05,1.52-7.58,3.72-10.48,6.53-2.9,2.81-5.19,6.25-6.82,10.22-1.63,3.97-2.46,8.44-2.46,13.3ZM297.59,26.3c.39-1.54.92-2.8,1.57-3.76.67-.97,1.45-1.69,2.32-2.12,1.72-.86,3.8-.85,5.58-.05.9.4,1.71,1.11,2.41,2.08.69.96,1.23,2.23,1.62,3.77.38,1.52.58,3.41.58,5.61s-.19,4.1-.58,5.61c-.38,1.54-.91,2.8-1.57,3.76-.67.98-1.47,1.7-2.37,2.13-.89.43-1.86.65-2.9.65s-1.92-.22-2.78-.65c-.87-.43-1.65-1.15-2.32-2.12-.65-.95-1.18-2.21-1.57-3.75-.38-1.52-.57-3.38-.57-5.53s.19-4.09.57-5.62Z"/>
  <path class="st0" d="M344.06,12.49c.09,2.15.13,4.53.13,7.07s.03,5.45.09,8.47l.08,6.37c.06,5.14.76,9.63,2.08,13.32,1.31,3.67,3.22,6.73,5.66,9.08,2.43,2.35,5.46,4.11,8.99,5.23,3.55,1.13,7.65,1.7,12.17,1.7,4.23,0,8.15-.62,11.64-1.83,3.48-1.21,6.51-3.04,9-5.45,2.49-2.41,4.47-5.47,5.88-9.09,1.41-3.63,2.12-7.94,2.12-12.79v-13.85c0-2.42.07-5.44.21-8.97.14-3.39.61-6.91,1.4-10.47h-22.99c.79,3.55,1.25,7.06,1.39,10.47.14,3.56.22,6.58.22,8.97v14.97c0,.88-.09,1.82-.27,2.79-.18,1-.52,1.9-1.01,2.69-.49.81-1.2,1.48-2.09,2-.89.53-2.05.79-3.45.79s-2.65-.26-3.57-.79c-.92-.52-1.64-1.2-2.14-2-.49-.79-.83-1.69-1-2.69-.18-.98-.27-1.91-.27-2.79v-7.66c0-3.1.01-5.93.04-8.48.03-2.57.09-4.94.17-7.07.09-2.16.23-4.22.43-6.14.18-1.73.44-3.43.79-5.06h-26.95c.34,1.62.61,3.32.79,5.06.2,1.95.35,4.02.43,6.14Z"/>
  <path class="st0" d="M99.06,184.48c-2.92,0-5.13,1.18-6.84,2.95l.21-8.47-1.27.06-1.27-.06.33,13.28-.33,7.35,1.27-.06,1.27.06-.12-2.39c1.62,1.59,3.89,2.86,6.93,2.86,5.55,0,8-4.43,8-7.79s-2.42-7.79-8.17-7.79ZM98.8,197.46c-2.39,0-4.69-.88-6.58-2.36l-.12-2.86.06-2.74c1.92-1.45,4.25-2.51,6.67-2.51,3.54,0,6.4,2.27,6.4,5.28s-2.86,5.19-6.43,5.19Z"/>
  <path class="st0" d="M118.76,192.51l-2.06,3.72-1.86-3.25-4.04-8.14h-2.72l4.75,8.85,2.75,5.61c-1,2.12-2.83,2.8-4.37,2.8-.56,0-1.15-.09-1.86-.29l-.44,2.51c.88.26,1.83.41,2.71.41,2.72,0,4.31-1.47,5.19-3.25l3.96-8.03,4.72-8.61h-2.92l-3.8,7.67Z"/>
  <polygon class="st0" points="136.15 182.92 144.89 182.92 145.16 192.21 144.83 199.59 146.1 199.53 147.37 199.59 147.04 192.21 147.31 182.92 156.01 182.92 156.01 180.44 136.15 180.44 136.15 182.92"/>
  <path class="st0" d="M166.24,184.48c-5.16,0-8.47,3.3-8.47,7.79,0,4.93,3.48,7.79,8.47,7.79s8.44-2.86,8.44-7.79c0-4.49-3.27-7.79-8.44-7.79ZM166.24,197.52c-4.04,0-6.49-2.09-6.49-5.07,0-2.6,1.83-5.46,6.49-5.46s6.46,2.86,6.46,5.46c0,2.98-2.45,5.07-6.46,5.07Z"/>
  <path class="st0" d="M202.79,189.91c0-5.05-3.87-5.43-5.31-5.43-2.63,0-4.93,1.24-6.4,2.63-1.06-2.39-3.51-2.63-4.63-2.63-2.36,0-4.37,1.03-5.76,2.33l.09-1.92-1.27.06-1.27-.06.33,7.35-.33,7.35,1.27-.06,1.27.06-.32-7.35.15-3.04c1.09-1.27,3.07-2.21,5.22-2.21,1.86.06,3.96.86,3.96,3.36l.03,1.89-.24,7.35,1.12-.06,1.09.06-.21-7.35.03-2.33c0-.35-.03-.68-.06-1,1.21-1.09,3.13-1.92,5.19-1.92,1.95.06,4.16.86,4.16,3.36l.03,1.89-.24,7.35,1.15-.06,1.12.06-.21-7.35.03-2.33Z"/>
  <path class="st0" d="M226.66,190.03l.06,1.33-.06,1.24,7.94-.06-.12,3.75c-1.83.94-3.86,1.36-6.17,1.36-5.78,0-9.38-2.83-9.38-7.38,0-5.04,3.72-7.85,9.32-7.85,1.47,0,3.33.21,5.61,1.18l1.15-2.15c-1.92-.91-4.16-1.51-6.99-1.51-6.37,0-10.89,3.54-10.89,10,0,5.58,3.54,10.18,11.06,10.18,3.63,0,6.43-.97,8.41-2.3l-.06-1.56.06-6.14-9.94-.09Z"/>
  <path class="st0" d="M247.48,184.48c-5.25,0-8.17,3.39-8.17,7.94,0,5.14,3.8,7.64,8.32,7.64,2.95,0,5.67-.95,7.52-2.39l-1.59-2.3c-1.24.94-3.6,2.09-6.35,2.09-3.18,0-5.93-1.86-5.93-4.34l6.37-.12,7.56.06c.12-.71.18-1.36.18-1.95,0-4.66-3.3-6.64-7.91-6.64ZM247.66,191.03l-6.28-.09c0-2.48,2.66-3.95,6.17-3.95s5.96,1.47,5.96,3.92l-5.84.12Z"/>
  <path class="st0" d="M261.46,188.08l.15-3.19-1.27.06-1.27-.06.33,7.35-.33,7.35,1.27-.06,1.27.06-.33-7.35.09-1.83c1.15-1.5,3.36-3.45,6.34-3.45.5,0,.95.06,1.33.15v-2.51c-.41-.09-.8-.12-1.15-.12-3.01,0-5.19,1.89-6.43,3.6Z"/>
  <path class="st0" d="M295.97,189.91c0-5.05-3.86-5.43-5.31-5.43-2.63,0-4.93,1.24-6.41,2.63-1.06-2.39-3.51-2.63-4.63-2.63-2.36,0-4.37,1.03-5.75,2.33l.09-1.92-1.27.06-1.27-.06.33,7.35-.33,7.35,1.27-.06,1.27.06-.32-7.35.15-3.04c1.09-1.27,3.07-2.21,5.22-2.21,1.86.06,3.96.86,3.96,3.36l.03,1.89-.24,7.35,1.12-.06,1.09.06-.21-7.35.03-2.33c0-.35-.03-.68-.06-1,1.21-1.09,3.13-1.92,5.19-1.92,1.95.06,4.16.86,4.16,3.36l.03,1.89-.24,7.35,1.15-.06,1.12.06-.21-7.35.03-2.33Z"/>
  <path class="st0" d="M314.99,189.76c0-4.13-3.27-5.28-6.9-5.31-3.07.03-5.61.83-7.64,2.04l1.06,2.21c1.5-.95,3.66-1.83,6.34-1.83,2.18,0,5.19.56,5.19,2.74v1.01c-8.02,0-13.63.59-13.63,5.19,0,3.66,3.54,4.25,5.43,4.25,3.3,0,5.9-1.77,8.11-3.96l-.09,3.48,1.15-.06,1.27.06-.29-7.35v-2.48ZM313.01,194.07c-1.68,1.62-4.46,3.39-8.32,3.39-2.33,0-3.48-.65-3.48-2.01,0-2.15,2.86-2.6,11.83-2.6l-.03,1.21Z"/>
  <polygon class="st0" points="320.62 184.95 319.35 184.89 319.67 192.24 319.35 199.59 320.62 199.53 321.88 199.59 321.56 192.24 321.88 184.89 320.62 184.95"/>
  <polygon class="st0" points="319.32 179.2 319.32 181.79 321.91 181.79 321.91 179.2 320.67 179.26 319.32 179.2"/>
  <path class="st0" d="M336.07,184.45c-2.72,0-5.37,1.06-7.02,2.39l.09-1.95-1.27.06-1.27-.06.33,7.35-.33,7.35,1.27-.06,1.27.06-.33-7.35.12-2.71c1.27-1.3,3.66-2.54,6.2-2.54s4.66,1.18,4.66,3.36l-.06,9.24,1.15-.06,1.15.06-.35-9.71c0-4.78-3.39-5.43-5.61-5.43Z"/>
</svg>